<svg id="eLgMdxqwO0s1" xmlns="http://www.w3.org/2000/svg" xmlns:xlink="http://www.w3.org/1999/xlink" shape-rendering="geometricPrecision" text-rendering="geometricPrecision" width="100" height="100" viewBox="0 0 100 100"><style><![CDATA[#redBox {animation: redBox__to 6000ms linear infinite normal forwards}@keyframes redBox__to { 0% {transform: translate(400px,527.94px)} 13.333333% {transform: translate(400px,527.94px);animation-timing-function: cubic-bezier(0.23,1,0.32,1)} 20% {transform: translate(284.124574px,474.440293px);animation-timing-function: cubic-bezier(0.23,1,0.32,1)} 30% {transform: translate(284.124574px,474.440293px);animation-timing-function: cubic-bezier(0.23,1,0.32,1)} 80% {transform: translate(284.124574px,474.440293px);animation-timing-function: cubic-bezier(0.23,1,0.32,1)} 83.333333% {transform: translate(400px,527.94px)} 100% {transform: translate(400px,527.94px)}} #blueBox {animation: blueBox__to 6000ms linear infinite normal forwards}@keyframes blueBox__to { 0% {transform: translate(400px,459.968486px);animation-timing-function: cubic-bezier(0.23,1,0.32,1)} 6.666667% {transform: translate(400px,459.968486px);animation-timing-function: cubic-bezier(0.23,1,0.32,1)} 16.666667% {transform: translate(400px,340.006589px);animation-timing-function: cubic-bezier(0.23,1,0.32,1)} 20% {transform: translate(400px,340.006589px);animation-timing-function: cubic-bezier(0.23,1,0.32,1)} 30% {transform: translate(398.125595px,527.94px);animation-timing-function: cubic-bezier(0.23,1,0.32,1)} 56.666667% {transform: translate(398.125595px,527.94px);animation-timing-function: cubic-bezier(0.23,1,0.32,1)} 66.666667% {transform: translate(398.125595px,340.01px);animation-timing-function: cubic-bezier(0.23,1,0.32,1)} 70% {transform: translate(289.31px,293.149884px);animation-timing-function: cubic-bezier(0.23,1,0.32,1)} 80% {transform: translate(284.12456px,406.998127px);animation-timing-function: cubic-bezier(0.23,1,0.32,1)} 83.333333% {transform: translate(400px,459.968486px)} 100% {transform: translate(400px,459.968486px)}} #greenBox {animation: greenBox__to 6000ms linear infinite normal forwards}@keyframes greenBox__to { 0% {transform: translate(400px,391.364405px);animation-timing-function: cubic-bezier(0.23,1,0.32,1)} 3.333333% {transform: translate(400px,391.364405px);animation-timing-function: cubic-bezier(0.23,1,0.32,1)} 13.333333% {transform: translate(400px,271.402508px);animation-timing-function: cubic-bezier(0.23,1,0.32,1)} 23.333333% {transform: translate(400px,271.402508px);animation-timing-function: cubic-bezier(0.23,1,0.32,1)} 33.333333% {transform: translate(398.125595px,459.95px);animation-timing-function: cubic-bezier(0.23,1,0.32,1)} 43.333333% {transform: translate(400px,340.87px);animation-timing-function: cubic-bezier(0.23,1,0.32,1)} 46.666667% {transform: translate(511.62307px,361.710301px);animation-timing-function: cubic-bezier(0.23,1,0.32,1)} 56.666667% {transform: translate(511.161778px,581.675672px);animation-timing-function: cubic-bezier(0.23,1,0.32,1)} 83.333333% {transform: translate(511.161778px,581.675672px);animation-timing-function: cubic-bezier(0.23,1,0.32,1)} 91.666667% {transform: translate(511.62307px,361.710301px);animation-timing-function: cubic-bezier(0.23,1,0.32,1)} 95% {transform: translate(400px,340.87px);animation-timing-function: cubic-bezier(0.23,1,0.32,1)} 100% {transform: translate(400px,391.364405px)}}]]></style><g id="frame" transform="matrix(0.17 0 0 0.17 -20 -20)"><g id="redBox" transform="translate(400,527.94)"><g id="eLgMdxqwO0s6" transform="scale(0.351569,0.351569) translate(-398,-397)"><polygon id="eLgMdxqwO0s7" points="80.987754,285.896172 80.987754,473.005795 400.5,627.857448 399.956519,427.956342" fill="rgb(241,103,173)" stroke="rgb(216,78,148)" stroke-width="6" stroke-linejoin="round" stroke-miterlimit="10"/><polygon id="eLgMdxqwO0s8" points="400.5,427.468588 712.522131,285.896172 715.5,476.85394 399.956519,627.857448" fill="rgb(216,78,148)" stroke="rgb(216,78,148)" stroke-width="6" stroke-linejoin="round" stroke-miterlimit="10"/><path id="eLgMdxqwO0s9" d="M80.987754,285.896172L398,129.522266L712.522131,282.345427L400.5,436.674249Z" fill="rgb(255,120,188)" stroke="rgb(216,78,148)" stroke-width="6" stroke-linejoin="round" stroke-miterlimit="10"/><g id="eLgMdxqwO0s10"><path id="eLgMdxqwO0s11" d="M468.5,315.5C468.5,349.5,478.5,384.5,400.5,384.5C319.5,384.5,330.5,349.5,330.5,315.5" fill="rgb(216,78,148)" stroke="rgb(216,78,148)" stroke-width="6" stroke-miterlimit="10"/><ellipse id="eLgMdxqwO0s12" rx="69" ry="31" transform="matrix(1 0 0 1 399.5 315.5)" fill="rgb(255,120,188)" stroke="rgb(216,78,148)" stroke-width="6" stroke-miterlimit="10"/></g><g id="eLgMdxqwO0s13"><path id="eLgMdxqwO0s14" d="M627.6,235C627.6,268.8,637.5,303.5,560,303.5C479.5,303.5,490.5,268.7,490.5,235" fill="rgb(216,78,148)" stroke="rgb(216,78,148)" stroke-width="6" stroke-miterlimit="10"/><ellipse id="eLgMdxqwO0s15" rx="68.5" ry="30.8" transform="matrix(1 0 0 1 559 235)" fill="rgb(255,120,188)" stroke="rgb(216,78,148)" stroke-width="6" stroke-miterlimit="10"/></g><g id="eLgMdxqwO0s16"><path id="eLgMdxqwO0s17" d="M307.4,234.7C307.4,268.4,317.3,303,240.1,303C159.9,303,170.8,268.4,170.8,234.7" fill="rgb(216,78,148)" stroke="rgb(216,78,148)" stroke-width="6" stroke-miterlimit="10"/><ellipse id="eLgMdxqwO0s18" rx="68.3" ry="30.7" transform="matrix(1 0 0 1 239.1 234.7)" fill="rgb(255,120,188)" stroke="rgb(216,78,148)" stroke-width="6" stroke-miterlimit="10"/></g><g id="eLgMdxqwO0s19"><path id="eLgMdxqwO0s20" d="M466.8,159.7C466.8,192.8,476.6,227,400.5,227C321.5,227,332.2,192.9,332.2,159.7" fill="rgb(216,78,148)" stroke="rgb(216,78,148)" stroke-width="6" stroke-miterlimit="10"/><ellipse id="eLgMdxqwO0s21" rx="67.3" ry="30.2" transform="matrix(1 0 0 1 399.5 159.7)" fill="rgb(255,120,188)" stroke="rgb(216,78,148)" stroke-width="6" stroke-miterlimit="10"/></g></g></g><g id="blueBox" transform="translate(400,459.968486)"><g id="eLgMdxqwO0s22" transform="scale(0.351569,0.351569) translate(-398,-397)"><polygon id="eLgMdxqwO0s23" points="81.208576,285.408418 81.5,477.837772 398.708576,628.50636 400.177341,427.468588" fill="rgb(77,146,213)" stroke="rgb(59,116,170)" stroke-width="6" stroke-linejoin="round" stroke-miterlimit="10"/><polygon id="eLgMdxqwO0s24" points="400.5,427.468588 712.522131,282.345427 712.522131,475.683199 398,628.50636" fill="rgb(59,116,170)" stroke="rgb(59,116,170)" stroke-width="6" stroke-linejoin="round" stroke-miterlimit="10"/><path id="eLgMdxqwO0s25" d="M81.5,284.5L398,129.522266L712.522131,282.345427L398,435.168588Z" fill="rgb(92,155,213)" stroke="rgb(59,116,170)" stroke-width="6" stroke-linejoin="round" stroke-miterlimit="10"/><g id="eLgMdxqwO0s26"><path id="eLgMdxqwO0s27" d="M468.5,315.5C468.5,349.5,478.5,384.5,400.5,384.5C319.5,384.5,330.5,349.5,330.5,315.5" fill="rgb(59,116,170)" stroke="rgb(59,116,170)" stroke-width="6" stroke-miterlimit="10"/><ellipse id="eLgMdxqwO0s28" rx="69" ry="31" transform="matrix(1 0 0 1 399.5 315.5)" fill="rgb(92,155,213)" stroke="rgb(59,116,170)" stroke-width="6" stroke-miterlimit="10"/></g><g id="eLgMdxqwO0s29"><path id="eLgMdxqwO0s30" d="M627.6,235C627.6,268.8,637.5,303.5,560,303.5C479.5,303.5,490.5,268.7,490.5,235" fill="rgb(59,116,170)" stroke="rgb(59,116,170)" stroke-width="6" stroke-miterlimit="10"/><ellipse id="eLgMdxqwO0s31" rx="68.5" ry="30.8" transform="matrix(1 0 0 1 559 235)" fill="rgb(92,155,213)" stroke="rgb(59,116,170)" stroke-width="6" stroke-miterlimit="10"/></g><g id="eLgMdxqwO0s32"><path id="eLgMdxqwO0s33" d="M307.4,234.7C307.4,268.4,317.3,303,240.1,303C159.9,303,170.8,268.4,170.8,234.7" fill="rgb(59,116,170)" stroke="rgb(59,116,170)" stroke-width="6" stroke-miterlimit="10"/><ellipse id="eLgMdxqwO0s34" rx="68.3" ry="30.7" transform="matrix(1 0 0 1 239.1 234.7)" fill="rgb(92,155,213)" stroke="rgb(59,116,170)" stroke-width="6" stroke-miterlimit="10"/></g><g id="eLgMdxqwO0s35"><path id="eLgMdxqwO0s36" d="M466.8,159.7C466.8,192.8,476.6,227,400.5,227C321.5,227,332.2,192.9,332.2,159.7" fill="rgb(59,116,170)" stroke="rgb(59,116,170)" stroke-width="6" stroke-miterlimit="10"/><ellipse id="eLgMdxqwO0s37" rx="67.3" ry="30.2" transform="matrix(1 0 0 1 399.5 159.7)" fill="rgb(92,155,213)" stroke="rgb(59,116,170)" stroke-width="6" stroke-miterlimit="10"/></g></g></g><g id="greenBox" transform="translate(400,391.364405)"><g id="eLgMdxqwO0s38" transform="scale(0.351569,0.351569) translate(-398,-397)"><polygon id="eLgMdxqwO0s39" points="81.5,284.5 81.5,478.147016 397.011065,632.971404 399.468765,427.468588" fill="rgb(111,211,138)" stroke="rgb(73,170,99)" stroke-width="6" stroke-linejoin="round" stroke-miterlimit="10"/><polygon id="eLgMdxqwO0s40" points="400.5,427.468588 712.522131,282.345427 712.52213,478.147016 398,632.971404" fill="rgb(73,170,99)" stroke="rgb(73,170,99)" stroke-width="6" stroke-linejoin="round" stroke-miterlimit="10"/><path id="eLgMdxqwO0s41" d="M81.5,284.5L398,129.522266L712.52213,282.345427L398,435.168588Z" fill="rgb(137,220,160)" stroke="rgb(73,170,99)" stroke-width="6" stroke-linejoin="round" stroke-miterlimit="10"/><g id="eLgMdxqwO0s42"><path id="eLgMdxqwO0s43" d="M468.5,315.5C468.5,349.5,478.5,384.5,400.5,384.5C319.5,384.5,330.5,349.5,330.5,315.5" fill="rgb(73,170,99)" stroke="rgb(73,170,99)" stroke-width="6" stroke-miterlimit="10"/><ellipse id="eLgMdxqwO0s44" rx="69" ry="31" transform="matrix(1 0 0 1 399.5 315.5)" fill="rgb(137,220,160)" stroke="rgb(73,170,99)" stroke-width="6" stroke-miterlimit="10"/></g><g id="eLgMdxqwO0s45"><path id="eLgMdxqwO0s46" d="M627.6,235C627.6,268.8,637.5,303.5,560,303.5C479.5,303.5,490.5,268.7,490.5,235" transform="matrix(1 0 0 1 -1.713135 0)" fill="rgb(73,170,99)" stroke="rgb(73,170,99)" stroke-width="6" stroke-miterlimit="10"/><ellipse id="eLgMdxqwO0s47" rx="68.5" ry="30.8" transform="matrix(1 0 0 1 557.286865 235)" fill="rgb(137,220,160)" stroke="rgb(73,170,99)" stroke-width="6" stroke-miterlimit="10"/></g><g id="eLgMdxqwO0s48"><path id="eLgMdxqwO0s49" d="M307.4,234.7C307.4,268.4,317.3,303,240.1,303C159.9,303,170.8,268.4,170.8,234.7" fill="rgb(73,170,99)" stroke="rgb(73,170,99)" stroke-width="6" stroke-miterlimit="10"/><ellipse id="eLgMdxqwO0s50" rx="68.3" ry="30.7" transform="matrix(1 0 0 1 239.1 234.7)" fill="rgb(137,220,160)" stroke="rgb(73,170,99)" stroke-width="6" stroke-miterlimit="10"/></g><g id="eLgMdxqwO0s51"><path id="eLgMdxqwO0s52" d="M466.8,159.7C466.8,192.8,476.6,227,400.5,227C321.5,227,332.2,192.9,332.2,159.7" transform="matrix(1 0 0 1 0.027206 0)" fill="rgb(73,170,99)" stroke="rgb(73,170,99)" stroke-width="6" stroke-miterlimit="10"/><ellipse id="eLgMdxqwO0s53" rx="67.3" ry="30.2" transform="matrix(1 0 0 1 399.5 159.7)" fill="rgb(137,220,160)" stroke="rgb(73,170,99)" stroke-width="6" stroke-miterlimit="10"/></g></g></g></g></svg>