<?xml version="1.0" standalone="no"?>
<!DOCTYPE svg PUBLIC "-//W3C//DTD SVG 20010904//EN"
 "http://www.w3.org/TR/2001/REC-SVG-20010904/DTD/svg10.dtd">
<svg version="1.0" xmlns="http://www.w3.org/2000/svg"
 width="429.000000pt" height="320.000000pt" viewBox="0 0 429.000000 320.000000"
 preserveAspectRatio="xMidYMid meet">
<metadata>
Created by potrace 1.16, written by Peter Selinger 2001-2019
</metadata>
<g transform="translate(0.000000,320.000000) scale(0.100000,-0.100000)"
fill="#000000" stroke="none">
<path d="M3335 3159 c-126 -19 -126 -19 -665 -272 -135 -63 -270 -126 -300
-140 -81 -37 -228 -106 -375 -177 -71 -34 -209 -99 -305 -145 -96 -45 -260
-125 -365 -177 -104 -52 -219 -105 -253 -119 -45 -17 -85 -43 -136 -89 -95
-87 -158 -137 -234 -190 -34 -24 -61 -44 -59 -46 1 -2 23 4 47 13 67 25 267
29 350 8 210 -53 338 -149 414 -310 46 -96 54 -138 62 -306 9 -200 -8 -294
-82 -442 -36 -73 -38 -76 -135 -181 -65 -70 -219 -181 -267 -193 -15 -3 -45
-15 -68 -24 -35 -16 -257 -43 -274 -34 -3 2 -27 6 -55 9 -60 8 -190 56 -262
98 -29 16 -53 27 -53 24 0 -4 -33 30 -74 74 -123 134 -176 268 -179 451 -1
117 -10 105 -27 -41 -40 -337 103 -624 380 -765 127 -64 197 -80 367 -80 147
0 202 -7 125 -15 -77 -8 -250 1 -327 16 -44 9 -106 30 -139 46 -32 16 -60 27
-62 25 -9 -9 153 -86 212 -101 83 -22 230 -22 339 -2 96 18 207 51 240 70 30
19 145 48 161 42 8 -3 29 3 47 14 17 11 25 20 17 20 -11 1 -10 4 5 12 19 11
19 11 0 20 -20 8 -20 8 0 5 11 -2 19 -9 17 -16 -1 -7 3 -11 10 -8 7 2 12 10
10 16 -1 7 2 10 8 6 24 -15 187 135 276 253 66 88 98 147 166 307 41 97 165
296 201 323 9 7 17 18 17 25 0 15 79 87 108 98 13 5 21 13 18 18 -3 5 19 28
49 51 30 23 55 46 55 51 0 5 6 9 13 9 7 0 29 14 50 31 21 17 42 27 48 23 7 -4
9 -3 6 3 -8 13 18 37 31 29 6 -3 15 1 22 9 7 8 9 15 5 15 -5 0 0 9 10 20 10
11 23 20 29 20 7 0 18 9 26 20 8 11 33 30 55 41 22 12 43 26 47 33 5 7 8 7 8
1 0 -9 -98 -85 -150 -115 -8 -5 -12 -11 -9 -14 3 -3 36 17 75 45 166 120 603
383 1029 619 416 230 480 271 538 342 46 58 64 95 71 148 3 27 2 37 -3 26 -10
-25 -18 -11 -19 34 -2 71 -54 175 -116 232 -86 80 -236 152 -390 188 -96 22
-297 32 -381 19z m348 -281 c49 -15 83 -34 120 -67 50 -45 51 -45 28 -11 l-23
35 26 -28 c39 -42 36 -91 -9 -132 -52 -50 -122 -70 -235 -68 -144 2 -253 47
-285 116 -11 24 -13 26 -9 7 8 -31 -11 -16 -21 17 -5 17 -3 22 7 18 9 -4 17 6
23 27 8 25 24 41 64 65 59 36 76 39 176 42 47 1 92 -6 138 -21z m-2159 -1324
c111 -110 158 -241 155 -434 l-2 -85 -7 105 c-5 61 -17 131 -29 168 -12 35
-18 68 -15 74 4 6 3 8 -3 5 -6 -4 -22 16 -37 43 -27 50 -93 123 -181 198 l-50
43 54 -28 c29 -15 81 -55 115 -89z"/>
<path d="M720 1810 c-360 -93 -641 -448 -640 -809 1 -247 167 -467 405 -537
89 -26 249 -25 346 3 115 33 264 108 264 132 0 5 28 35 63 66 103 94 181 207
234 340 15 39 27 64 28 57 1 -32 -65 -176 -109 -238 -53 -75 -91 -116 -165
-181 -27 -24 -45 -43 -40 -43 5 0 39 27 75 59 138 125 229 279 264 445 17 85
20 129 6 108 -5 -8 -10 25 -14 85 -7 119 -33 205 -89 291 -129 199 -377 286
-628 222z m279 -31 c230 -56 392 -266 391 -508 0 -40 -3 -52 -10 -41 -8 12
-10 10 -12 -10 -12 -173 -63 -310 -150 -410 -21 -23 -35 -47 -31 -53 3 -5 1
-7 -4 -4 -6 4 -19 -3 -29 -14 -54 -60 -194 -142 -303 -178 -69 -23 -118 -29
-91 -11 8 5 25 10 37 10 12 0 63 21 114 47 70 36 114 68 179 130 85 81 170
193 184 243 4 14 -11 -4 -33 -40 -142 -232 -362 -368 -593 -370 -72 0 -165 16
-185 32 -7 6 -13 8 -13 4 0 -4 -13 0 -30 9 -98 51 -178 129 -225 220 -8 17
-24 41 -35 55 l-19 25 10 -40 c47 -176 214 -324 401 -355 173 -30 392 32 540
153 69 56 94 69 43 23 -246 -223 -575 -266 -805 -105 -220 154 -283 463 -152
744 153 329 505 519 821 444z"/>
</g>
</svg>
