<svg width="500" height="500" viewBox="0 0 500 500" fill="none" xmlns="http://www.w3.org/2000/svg">
<path d="M290 366L123.5 274.5L131.75 263C131.75 263 143 247 149 239.5C155 232 166 205.5 166 205.5C168 199 168.409 197 171.5 188.5C173.5 183 175.075 180 177.5 175C179.711 170.442 183.5 163.5 183.5 163.5C183.5 163.5 188.438 155.064 192 151.5C195.562 147.936 197 147 200.5 145C200.5 145 207.5 142 214 143.5C220.5 145 220 147.5 224.5 148C226.59 148.232 229 146 229 146C229 146 232.473 143.078 234.5 141C239.082 136.304 244.5 127.5 244.5 127.5L306.5 139L370.5 150L355.5 201.5L354 207.5C354 207.5 353.605 209.317 353.5 210.5C353.379 211.862 354 210 353.5 214C353 218 350.5 224 350.5 224L339.5 252.5L330.5 274.5L322 296.5L316.5 310L305.5 334L290 366Z" fill="#5385DC" stroke="white" stroke-width="2"/>
<path d="M255.5 161.5L257.5 160.5L260.5 157.5L263 154.5L265.5 151L268 146L270.5 140.5L273 133.5" stroke="white"/>
<path d="M238.5 160.5L240.5 160H242.5L244.5 160.5L246.5 161.5L248 162L250 162.5H251H252.5H254L255 162L256 161.5" stroke="white"/>
<path d="M267.5 171.5L269 171L271 170L274 167.5L279.5 160.5L284.5 149.5L287 143.5L289 136.5" stroke="white"/>
<path d="M285 179L288.5 176.5L291.5 172.5L296 165L301 155L303 149L305 139.5" stroke="white"/>
<path d="M303.5 187.5L306 185L309 180L312 173.5L315.5 165.5L317.5 158.5L322 142" stroke="white"/>
<path d="M298 188.5L299 188H302.5L303.5 187.5" stroke="white"/>
<path d="M358.5 148.5L350 178L348.5 183L345.5 192L343.5 197.5L342 201.5L339.5 208" stroke="white"/>
<path d="M320.5 197L322.5 195L323.5 193.5L326 188.5L332 173.5L336.5 157.5L340 145" stroke="white"/>
<path d="M220 152.5L218 153.5L215.5 155L212.5 157.5L209 161L206.5 164.5L200.5 173.5L195 184.5L188.5 200L184 213L180 223.5" stroke="white"/>
<path d="M220 240.5L232 210L238.5 196L244 185.5L251 176L255.5 171.5L258.5 169.5L260 169H262L263 169.5" stroke="white"/>
<path d="M282 178H280L278 178.5L276.5 179.5L272.5 183L269 188L262 199.5L258.5 206.5L255 214.5L241.5 249.5" stroke="white"/>
<path d="M311 279L324.5 244L339.5 208.5" stroke="white"/>
<path d="M286.5 268.5L301.5 231.5L310 213L315 204L316 202L317.5 200L319 198L320.5 197" stroke="white"/>
<path d="M311 279L302 299.5L292.5 319L273.5 357" stroke="white"/>
<path d="M286.5 268.5L281 281L274.5 293" stroke="white"/>
<path d="M220 241L214.5 252L207.5 262.5" stroke="white"/>
<path d="M241.5 250L235.5 261.5L229 272" stroke="white"/>
<path d="M263.5 259.5L258.5 270.5L251.5 282.5" stroke="white"/>
<path d="M199 232L194 243L187 253.5" stroke="white"/>
<path d="M180.5 223L175 234L169 244.5" stroke="white"/>
<path d="M208 262L194.5 284L178.5 305.5" stroke="white"/>
<path d="M187.5 253L174 275L159 295" stroke="white"/>
<path d="M169 244.5L156 266L142 285" stroke="white"/>
<path d="M229 272L215 294L199.5 315.5" stroke="white"/>
<path d="M366 162L334 157L302 151.5L270 144.5L239 136" stroke="white"/>
<path d="M262 169L352.5 209.5" stroke="white"/>
<path d="M352.5 214.5L315.5 196.5L278 179L240.5 161.5L202.5 144.5" stroke="white"/>
<path d="M303 338L210.5 290L139 252.5" stroke="white"/>
<path d="M315 312L227.5 271.5L150.5 236" stroke="white"/>
<path d="M161.5 215.5L325 285.5" stroke="white"/>
<path d="M335.5 260L298 245L169.5 194" stroke="white"/>
<path d="M344.5 236.5L261.5 204L179 172.5" stroke="white"/>
<path d="M351 220.5L269.5 186L230 169.5L189.5 154.5" stroke="white"/>
<path d="M356 196.5L340 192.5L330 190L321.5 187L289 175.5L225 148M360.5 179.5L328 173.5L295 166L231 145" stroke="white"/>
<path d="M274.5 293.5L247.5 342M251.5 282.5L237 306L222.5 328" stroke="white"/>
<path d="M298 188.5L297 189L294.5 192L290.5 198L286.5 205L282.5 212.5L272.5 236L263.5 259.5" stroke="white"/>
<path d="M199 232L210 203L214.5 192.5L219 183.5L223 177L226 172.5L230 167.5L233.5 164L236 162L238.5 160.5" stroke="white"/>
<path d="M220 152.5L222 151.5H224H225.5L227.5 152L229 152.5L232 153.5L235.5 154.5L238.5 155L240 154.5" stroke="white"/>
<path d="M240.5 154.5L242.5 153.5L245.5 151L248 148.5L250.5 145L253 141L258.5 131" stroke="white"/>
<path d="M65.2284 312.734L78.2223 307.107L78.8844 306.859L80.8289 311.038L57.6551 319.726L56.6622 317.078L63.7385 314.802C64.4404 314.096 65.2284 312.734 65.2284 312.734Z" fill="#C4C4C4" stroke="#DCD8D8"/>
<path d="M84.1801 316.956C84.1801 316.956 84.4284 317.618 85.5456 317.577L377.826 197.809L393.468 191.19L411.052 224.999L416.099 234.434L418.83 235.676L419.741 236.09L420.775 233.814C420.775 233.814 423.268 228.21 423.217 227.235C423.167 226.26 423.135 225 423.135 225C423.135 225 420.985 219.817 419.908 216.393C418.783 212.814 418.605 210.682 417.55 207.082C416.502 203.502 415.84 201.512 414.53 198.019C413.221 194.526 412.402 192.596 410.848 189.205L396.285 164.458C395.933 164.29 395.73 164.206 395.375 164.044C395.019 163.883 394.835 163.753 394.464 163.63C392.493 162.98 391.443 164.993 389.374 165.161C388.939 165.196 388.693 165.227 388.257 165.202C385.885 165.067 385.231 164.543 384.161 163.34C383.87 163.014 382.724 161.318 382.506 160.94C380.354 157.215 377.458 151.504 377.458 151.504L377.003 151.297C377.003 151.297 376.412 152.374 376.175 153.118C376.299 156.47 377.003 157.865 377.581 160.898C377.896 162.548 377.947 163.504 378.409 165.119C379.557 169.136 383.456 174.554 383.456 174.554L76.3197 298.003C76.3197 298.003 75.4507 298.707 75.4919 299.824L84.1801 316.956Z" fill="#C4C4C4" stroke="#DCD8D8"/>
<path d="M411.259 224.544C411.259 224.544 414.735 221.73 416.97 221.648C417.555 221.626 417.86 221.926 418.335 222.269C420.404 223.758 422.597 228.6 422.597 228.6" stroke="#DCD8D8" stroke-width="0.5"/>
<path d="M371.951 190.194L373.647 193.712" stroke="#7A7575"/>
<path d="M362.267 194.58L363.964 198.097" stroke="#7A7575"/>
<path d="M352.336 198.303L353.784 201.158" stroke="#7A7575"/>
<path d="M342.404 202.026L344.1 205.544" stroke="#7A7575"/>
<path d="M332.721 206.412L334.417 209.929" stroke="#7A7575"/>
<path d="M323.037 210.797L324.734 214.315" stroke="#7A7575"/>
<path d="M375.386 186.264L378.985 192.843" stroke="#7A7575"/>
<path d="M384.614 181.671L388.213 188.251" stroke="#7A7575"/>
<path d="M316.748 210.134L320.347 216.714" stroke="#7A7575"/>
<path d="M326.927 207.073L330.527 213.653" stroke="#7A7575"/>
<path d="M337.521 203.102L341.121 209.682" stroke="#7A7575"/>
<path d="M346.542 198.965L349.894 204.882" stroke="#7A7575"/>
<path d="M356.474 195.241L360.074 201.821" stroke="#7A7575"/>
<path d="M366.158 190.856L369.757 197.436" stroke="#7A7575"/>
<path d="M305.74 215.016L309.339 221.596" stroke="#7A7575"/>
<path d="M296.47 218.491L300.07 225.071" stroke="#7A7575"/>
<path d="M286.373 223.787L289.973 230.367" stroke="#7A7575"/>
<path d="M275.779 227.759L279.379 234.338" stroke="#7A7575"/>
<path d="M266.096 232.144L269.695 238.724" stroke="#7A7575"/>
<path d="M254.178 236.612L257.778 243.192" stroke="#7A7575"/>
<path d="M243.584 240.583L247.184 247.163" stroke="#7A7575"/>
<path d="M232.577 245.465L236.176 252.045" stroke="#7A7575"/>
<path d="M221.983 249.437L225.582 256.017" stroke="#7A7575"/>
<path d="M210.975 254.319L214.575 260.898" stroke="#7A7575"/>
<path d="M199.968 259.2L203.567 265.78" stroke="#7A7575"/>
<path d="M187.139 263.254L190.739 269.834" stroke="#7A7575"/>
<path d="M176.132 268.136L179.731 274.716" stroke="#7A7575"/>
<path d="M165.124 273.018L168.724 279.598" stroke="#7A7575"/>
<path d="M153.206 277.486L156.806 284.066" stroke="#7A7575"/>
<path d="M142.199 282.368L145.798 288.948" stroke="#7A7575"/>
<path d="M129.867 287.746L133.466 294.326" stroke="#7A7575"/>
<path d="M117.949 292.214L121.548 298.794" stroke="#7A7575"/>
<path d="M381.179 185.602L383.579 189.989" stroke="#7A7575"/>
<path d="M312.444 214.769L314.843 219.155" stroke="#7A7575"/>
<path d="M302.264 217.83L304.663 222.216" stroke="#7A7575"/>
<path d="M292.58 222.215L294.98 226.602" stroke="#7A7575"/>
<path d="M281.573 227.097L283.972 231.484" stroke="#7A7575"/>
<path d="M270.979 231.069L273.379 235.455" stroke="#7A7575"/>
<path d="M260.882 236.364L263.281 240.751" stroke="#7A7575"/>
<path d="M249.378 239.922L251.777 244.308" stroke="#7A7575"/>
<path d="M239.694 244.307L242.094 248.694" stroke="#7A7575"/>
<path d="M227.776 248.775L230.176 253.162" stroke="#7A7575"/>
<path d="M217.679 254.071L220.079 258.457" stroke="#7A7575"/>
<path d="M205.761 258.539L208.161 262.925" stroke="#7A7575"/>
<path d="M194.257 262.096L196.657 266.483" stroke="#7A7575"/>
<path d="M183.249 266.978L185.649 271.365" stroke="#7A7575"/>
<path d="M171.828 272.77L174.227 277.157" stroke="#7A7575"/>
<path d="M159.91 277.238L162.31 281.625" stroke="#7A7575"/>
<path d="M148.902 282.12L151.302 286.507" stroke="#7A7575"/>
<path d="M136.984 286.588L139.384 290.975" stroke="#7A7575"/>
<path d="M125.066 291.056L127.466 295.443" stroke="#7A7575"/>
<path d="M342.326 181.842L338.354 183.331L334.381 184.82L333.388 182.172C333.388 182.172 333.277 181.486 333.347 181.055C333.441 180.476 334.07 179.399 334.175 179.234C334.175 179.234 337.18 177.197 338.81 177.496C339.578 177.638 340.046 177.806 340.63 178.324C340.957 178.614 341.091 178.83 341.334 179.193C341.948 180.111 342.326 181.842 342.326 181.842Z" fill="#C4C4C4"/>
<path d="M338.85 184.655L338.354 183.331M338.354 183.331L342.326 181.842C342.326 181.842 341.948 180.111 341.334 179.193C341.091 178.83 340.957 178.614 340.63 178.324C340.046 177.806 339.578 177.638 338.81 177.496C337.18 177.197 334.175 179.234 334.175 179.234C334.07 179.399 333.441 180.476 333.347 181.055C333.277 181.486 333.388 182.172 333.388 182.172L334.381 184.82L338.354 183.331Z" stroke="#DCD8D8"/>
<path d="M333.595 181.717C333.595 181.717 335.096 181.439 336.037 181.179C337.634 180.738 339.312 180.137 340.009 179.69C340.377 179.454 340.878 178.986 340.878 178.986" stroke="#DCD8D8" stroke-width="0.5"/>
<path d="M365.662 177.449L368.393 184.732L314.389 206.865L310.666 196.934L359.579 176.331C360.016 176.312 360.282 176.305 360.697 176.29C361.569 176.257 362.061 176.14 362.931 176.207C363.734 176.269 364.248 176.256 364.959 176.58C365.314 176.741 365.414 176.787 365.662 177.449Z" fill="#C4C4C4" stroke="#DCD8D8"/>
<path d="M312.61 201.113L365.952 179.228" stroke="#DCD8D8" stroke-width="0.5"/>
<path d="M374.932 167.932C376.836 170.994 379.028 175.836 379.028 175.836L366.903 180.759L365.869 176.994L369.594 174.842L360.74 159.282L359.788 157.751C359.788 157.751 361.445 157.322 362.478 157.876C365.002 159.572 368.359 161.682 370.753 163.835C372.453 165.363 373.514 166.14 374.932 167.932Z" fill="#C4C4C4" stroke="#DCD8D8"/>
<path d="M340.475 188.752C340.328 189.076 340.102 189.245 339.844 189.309C339.577 189.374 339.25 189.332 338.909 189.177C338.246 188.876 337.977 188.206 338.2 187.717C338.331 187.428 338.564 187.121 338.864 186.941C339.153 186.768 339.511 186.705 339.943 186.902C340.445 187.13 340.632 187.419 340.683 187.707C340.737 188.016 340.646 188.378 340.475 188.752Z" stroke="#7A7575" stroke-width="0.5"/>
<path d="M317.55 198.102C317.402 198.426 317.176 198.595 316.918 198.658C316.651 198.724 316.324 198.682 315.983 198.527C315.321 198.226 315.052 197.556 315.274 197.067C315.405 196.778 315.638 196.471 315.939 196.291C316.227 196.118 316.586 196.055 317.018 196.251C317.519 196.479 317.706 196.769 317.757 197.057C317.812 197.366 317.72 197.727 317.55 198.102Z" stroke="#7A7575" stroke-width="0.5"/>
<path d="M362.077 179.899C361.929 180.223 361.703 180.392 361.445 180.455C361.178 180.521 360.851 180.479 360.51 180.324C359.847 180.023 359.579 179.353 359.801 178.864C359.932 178.575 360.165 178.268 360.466 178.088C360.754 177.915 361.113 177.852 361.545 178.048C362.046 178.276 362.233 178.566 362.284 178.854C362.339 179.163 362.247 179.524 362.077 179.899Z" stroke="#7A7575" stroke-width="0.5"/>
<path d="M329.49 234.053L319.644 215.845L373.854 193.257L374.806 194.788L376.709 197.85C376.709 197.85 377.934 198.428 378.323 199.133C378.663 199.75 378.819 200.457 378.405 201.368L395.575 230.046L395.161 230.956L394.747 231.867L400.54 243.288C400.54 243.288 395.432 242.962 392.429 241.798C391.519 241.445 391.032 241.189 390.153 240.763L364.707 212.167C364.707 212.167 363.93 211.034 363.3 210.429C362.218 209.387 361.556 209.143 360.321 208.525L336.527 218.578C335.658 219.281 335.451 219.736 335.947 221.061L337.767 227.93C337.767 227.93 337.651 229.194 337.394 229.958C337.208 230.513 337.078 230.823 336.774 231.323L329.49 234.053Z" fill="#C4C4C4" stroke="#DCD8D8"/>
<path d="M395.161 230.956C395.161 230.956 392.538 231.153 391.851 232.197C391.636 232.524 391.566 232.739 391.437 233.108C391.308 233.476 393.69 237.313 394.829 240.143C395.242 241.167 396.277 242.998 396.277 242.998" stroke="#DCD8D8" stroke-width="0.5"/>
<path d="M378.612 200.913L323.947 223.294" stroke="#DCD8D8" stroke-width="0.5"/>
<path d="M351.563 210.271C351.416 210.595 351.19 210.764 350.932 210.827C350.665 210.893 350.338 210.851 349.997 210.696C349.334 210.395 349.065 209.725 349.287 209.236C349.419 208.947 349.652 208.64 349.952 208.46C350.24 208.287 350.599 208.224 351.031 208.42C351.533 208.648 351.72 208.938 351.771 209.226C351.825 209.535 351.733 209.896 351.563 210.271Z" stroke="#7A7575" stroke-width="0.5"/>
<path d="M374.489 200.921C374.342 201.245 374.115 201.414 373.858 201.478C373.59 201.544 373.263 201.502 372.922 201.347C372.26 201.045 371.991 200.375 372.213 199.886C372.344 199.597 372.577 199.29 372.878 199.11C373.166 198.937 373.525 198.874 373.957 199.071C374.458 199.299 374.645 199.588 374.696 199.876C374.751 200.185 374.659 200.547 374.489 200.921Z" stroke="#7A7575" stroke-width="0.5"/>
<path d="M328.638 219.621C328.49 219.944 328.264 220.114 328.006 220.177C327.739 220.243 327.412 220.201 327.071 220.046C326.408 219.745 326.139 219.075 326.362 218.586C326.493 218.297 326.726 217.99 327.026 217.81C327.315 217.637 327.674 217.574 328.106 217.77C328.607 217.998 328.794 218.288 328.845 218.576C328.9 218.885 328.808 219.246 328.638 219.621Z" stroke="#7A7575" stroke-width="0.5"/>
<line x1="323.829" y1="214.224" x2="325.732" y2="217.286" stroke="#7A7575" stroke-width="0.5"/>
<line x1="328.215" y1="211.824" x2="330.118" y2="214.887" stroke="#7A7575" stroke-width="0.5"/>
<path d="M333.098 210.749L334.541 213.281" stroke="#7A7575" stroke-width="0.5"/>
<path d="M337.485 208.349L338.927 210.881" stroke="#7A7575" stroke-width="0.5"/>
<path d="M342.625 206.521L343.769 208.689" stroke="#7A7575" stroke-width="0.5"/>
<path d="M347.922 204.535L349.066 206.703" stroke="#7A7575" stroke-width="0.5"/>
<path d="M352.34 202.15L353.701 204.965" stroke="#7A7575" stroke-width="0.5"/>
<path d="M357.637 200.164L358.78 202.332" stroke="#7A7575" stroke-width="0.5"/>
<path d="M362.023 197.764L363.384 200.58" stroke="#7A7575" stroke-width="0.5"/>
<path d="M366.906 196.689L368.05 198.857" stroke="#7A7575" stroke-width="0.5"/>
<path d="M371.293 194.289L372.437 196.457" stroke="#7A7575" stroke-width="0.5"/>
<circle cx="87.7395" cy="310.336" r="1.75" transform="rotate(24.4494 87.7395 310.336)" stroke="#7A7575" stroke-width="0.5"/>
<circle cx="83.8505" cy="301.977" r="1.75" transform="rotate(24.4494 83.8505 301.977)" stroke="#7A7575" stroke-width="0.5"/>
<path d="M205 231L206.5 233L285 295L364 356.5L369 357.5C369 357.5 372.489 357.351 374.5 356.5C374.5 356.5 377.5 355 382 347.5C386.5 340 387.5 321.5 387.5 321.5C387.5 320.5 387.068 320.163 386.5 319.5C385.759 318.636 384 318 384 318L307 260L295.5 251.5C290.5 249.5 290 249.092 287.5 247.5C286.906 247.122 286 246.5 286 246.5L236.5 209.5H226.5L218.5 208C217.5 207 217.446 206.57 216.5 206C214.819 204.988 211.5 205.5 211.5 205.5C211.5 205.5 209.24 207.348 207.5 207.5C206.317 207.604 204.5 207 204.5 207L202.5 206.5L183 191L182.5 188.5L181.5 187.5L141.5 158L130 149.5C128 149 128.031 149.367 126.5 149C125.299 148.712 124.646 148.459 123.5 148C120.08 146.63 115 143.5 115 143.5L114 143L112.5 143L112 144.5L112.5 146L119.5 153.5L120 154.5L123 159L173.5 197.5C173.5 197.5 175 198 176.25 198C177.5 198 179 198.5 179 198.5L198 213C198.5 214 198.676 214.189 199 215C199.229 215.573 199.5 216.5 199.5 216.5C199.5 216.5 199.012 222.543 201 225.5C201.924 226.875 203.152 227.076 204 228.5C204.538 229.403 205 231 205 231Z" fill="#C4C4C4" stroke="#DCD8D8"/>
<path d="M205 231L206.5 233L285 295L364 356.5L369 357.5C369 357.5 372.489 357.351 374.5 356.5C374.5 356.5 377.5 355 382 347.5C386.5 340 387.5 321.5 387.5 321.5C387.5 320.5 387.068 320.163 386.5 319.5C385.759 318.636 384 318 384 318L307 260L295.5 251.5C290.5 249.5 290 249.092 287.5 247.5C286.906 247.122 286 246.5 286 246.5L236.5 209.5H226.5L218.5 208C218.5 208 217 208.609 215.5 209.5C213.35 210.777 212.242 211.706 210.5 213.5C209.437 214.594 208.91 215.276 208 216.5C207.16 217.63 206.607 218.23 206 219.5C205.467 220.614 205.391 221.328 205 222.5L204 225.5C204 225.5 203.5 227 204 228.5C204.332 229.498 205 231 205 231Z" fill="#7A7575" stroke="#DCD8D8"/>
<path d="M376.933 349.299L376.921 349.307L376.911 349.316C375.866 350.284 374.682 350.985 373.195 351C372.463 350.703 371.994 350.343 371.711 349.945C371.424 349.542 371.31 349.076 371.331 348.541C371.372 347.45 371.967 346.126 372.72 344.618C374.702 341.154 377.313 338.763 380.475 338.75C380.99 338.86 381.283 339.165 381.436 339.605C381.598 340.072 381.602 340.696 381.492 341.399C381.273 342.8 380.624 344.399 380.129 345.388C379.32 347.008 378.261 348.322 376.933 349.299Z" fill="#C4C4C4" stroke="#DCD8D8" stroke-width="0.5"/>
<path d="M379.5 339C379.5 339 379.602 340.545 379 342C378.398 343.455 377.466 344.757 376.5 346C375.652 347.09 375.173 347.772 374 348.5C373.106 349.054 371.5 349.5 371.5 349.5" stroke="#DCD8D8" stroke-width="0.5"/>
<path d="M343 304.5C341.838 304.648 341.171 304.53 340 304.5C338.829 304.47 286 263 286 263C286 263 282.808 261.302 281.5 259.5C280.73 258.44 280 256.5 280 256.5C280 256.5 279.392 255.608 279.5 255C279.675 254.01 281.5 253.5 281.5 253.5L283.5 252.5C283.5 252.5 285.148 251.689 286 251.5C286.762 251.331 287.222 251.432 288 251.5C288.992 251.586 290.5 252 290.5 252C290.5 252 293.404 253.059 295 254C296.077 254.635 297.5 255.5 297.5 255.5L346 291.5C346 291.5 349.5 294 352 296C353 297 353.5 297.75 353 298.5C352 300 349.5 301.5 349.5 301.5C349.5 301.5 345.773 304.147 343 304.5Z" fill="#C4C4C4" stroke="#DCD8D8"/>
<path d="M306 265L338.5 289.5L330 294.5L297.5 269L306 265Z" fill="#DCD8D8" stroke="#DCD8D8" stroke-width="0.5"/>
<path d="M385 327L372.5 334C372 334.5 372 336 372 336C372 336 372.191 336.691 372.5 337C372.937 337.437 374 337.5 374 337.5L382.5 333C382.5 333 383.172 332.781 384 332C384.828 331.219 385.294 330.62 385.5 329.5C385.606 328.924 385.654 328.565 385.5 328C385.385 327.579 385 327 385 327Z" fill="#C4C4C4" stroke="#DCD8D8"/>
<path d="M359.453 304.247L359.471 304.248H359.489C360.659 304.248 361.672 304.532 362.378 305.041C363.068 305.538 363.489 306.265 363.489 307.248C363.489 308.205 363.07 308.933 362.376 309.439C361.669 309.954 360.655 310.248 359.489 310.248C358.357 310.248 357.212 309.848 356.358 309.221C355.497 308.589 355 307.784 355 307C355 306.134 355.318 305.42 355.982 304.934C356.662 304.436 357.775 304.128 359.453 304.247Z" fill="#C4C4C4" stroke="#DCD8D8"/>
<path d="M356.5 305.5L362.5 308.5" stroke="#DCD8D8" stroke-width="0.1"/>
<path d="M356 308L362.5 306" stroke="#DCD8D8" stroke-width="0.1"/>
<path d="M268 236.5C267.008 236.417 265.5 237 265.5 237C265.5 237 264.932 237.444 264.5 238C264.232 238.345 264 239 264 239C264 239 263.905 239.621 264 240C264.201 240.804 265 241.5 265 241.5L269.5 245L272 247C272.864 247.576 274.5 248 274.5 248C275.278 248.068 275.756 248.238 276.5 248C277.171 247.785 277.502 247.498 278 247C278.816 246.184 279 245.5 279 245.5C278.968 245.065 278.5 244.5 278.5 244.5C278.5 244.5 273.5 240 270.5 237.5C269.552 237.044 269.048 236.588 268 236.5Z" fill="#C4C4C4" stroke="#DCD8D8"/>
<path d="M246.042 219.508C245.05 219.425 243.542 220.008 243.542 220.008C243.542 220.008 242.974 220.452 242.542 221.008C242.274 221.353 242.042 222.008 242.042 222.008C242.042 222.008 241.947 222.629 242.042 223.008C242.243 223.812 243.042 224.508 243.042 224.508L247.542 228.008L250.042 230.008C250.906 230.584 252.542 231.008 252.542 231.008C253.32 231.076 253.798 231.246 254.542 231.008C255.213 230.794 255.544 230.506 256.042 230.008C256.858 229.192 257.042 228.508 257.042 228.508C257.01 228.073 256.542 227.508 256.542 227.508C256.542 227.508 251.542 223.008 248.542 220.508C247.594 220.052 247.09 219.596 246.042 219.508Z" fill="#C4C4C4" stroke="#DCD8D8"/>
<path d="M370 331L277.5 259C277.5 259 277 258.5 276.5 257.5C276 256 275.693 255.284 275 254C274.536 253.141 273.5 252 273.5 252L224 214.5M224 214.5L233.5 209.5M224 214.5C224 214.5 221.662 215.859 220 216C218.624 216.116 217.842 215.824 216.5 215.5C215.3 215.21 214.7 214.79 213.5 214.5C212.158 214.176 210 214 210 214" stroke="#DCD8D8"/>
<path d="M219 208C219 208 215.66 209.528 214 210.5C211.842 211.763 211.129 212.603 209.5 214.5C207.622 216.687 206.498 218.295 205.5 221C204.598 223.444 203.5 228 203.5 228" stroke="#DCD8D8"/>
<path d="M387.5 322.5L371 330.5C370 331 370 331 369.5 331.5C369.5 331.5 366.925 338.157 365.5 342.5C364.672 345.024 363.901 346.375 363.5 349C363.088 351.702 363.088 353.298 363.5 356" stroke="#DCD8D8"/>
<path d="M217.5 207L214.5 206.5C214.5 206.5 213.5 206.5 212.5 206.5C212.5 206.5 212 206.5 211 207C210.61 207.391 208.745 208.869 208 209.5C206.946 210.392 206.304 211.043 205.5 212C205.047 212.539 204.5 213.5 204.5 213.5C204.5 213.5 204 214 203.5 215C203 215.5 202.5 216.5 202 217.5C201.793 217.914 201.333 218.833 201 219.5C200.667 220.167 200.5 221 200.5 222.5C200.5 223 200.5 224 200.5 224" stroke="#DCD8D8" stroke-width="0.5"/>
<path d="M182.5 189C182.5 189 182 188.5 181.5 188C181.109 187.805 180.926 187.595 180.5 187.5C180.119 187.415 179.5 187.5 179.5 187.5L178 188C178 188 176.998 188.502 176.5 189C176 189.5 174.866 190.783 174.5 191.5C174.245 192 174 193 174 193C174 193 173.597 194.201 173.5 195C173.5 195 173.067 196.35 173.5 197C173.653 197.23 173.77 197.347 174 197.5" stroke="#DCD8D8" stroke-width="0.5"/>
<path d="M130 150C129.262 149.679 128.798 149.608 128 149.5C127.032 149.369 126.08 149.421 125.5 149.5C124.5 150 123.748 150.261 123 151C122.379 151.614 122.324 151.689 122 152.5C121.771 153.073 121.695 153.414 121.5 154C121.305 154.586 121 155.5 121 155.5C120.98 155.727 121 156.083 121 156.083" stroke="#DCD8D8" stroke-width="0.5"/>
</svg>
