<svg xmlns="http://www.w3.org/2000/svg" version="1.1" xmlns:xlink="http://www.w3.org/1999/xlink" xmlns:svgjs="http://svgjs.com/svgjs" id="svg-pattern-279" width="100%" height="100%"><defs><pattern x="0" y="0" width="34" height="58.5" patternUnits="userSpaceOnUse" id="pattern-279-layer-1"><g id="PatternRootContent1" transform="scale(0.25)"><rect x="0" class="fill0" width="136" height="234" fill="#7d1935"></rect>
<g class="fill1" fill="#4a96ad">
	<polygon points="129.4,234 136,230.2 136,224.4 119.4,234 	"></polygon>
	<polygon points="85.1,232.6 136,203.2 136,197.4 85.1,226.8 85.1,219.1 136,189.7 136,183.9 85.1,213.3 85.1,204.7 
		136,175.4 136,161.5 73.1,197.8 73.1,234 85.1,234 	"></polygon>
	<polygon points="106,234 136,216.7 136,210.9 96,234 	"></polygon>
	<polygon points="0.1,161.5 0,161.5 0,175.4 0,175.3 7.5,179.6 0,183.9 0,189.7 12.4,182.5 19.2,186.3 0,197.4 0,203.2 
		24.2,189.2 30.9,193.1 0,210.9 0,216.7 35.9,196 42.6,199.8 0,224.4 0,230.2 47.6,202.7 51.1,204.7 51.1,208.4 6.7,234 16.7,234 
		51.1,214.2 51.1,222.3 30.8,234 40.8,234 51.1,228.1 51.1,234 63.1,234 63.1,197.8 	"></polygon>
	<path d="M5.1,80.8v72.5l63,36.3l63-36.3V80.8l-63-36.3L5.1,80.8z M119.1,146.3l-51,29.3l-7.4-4.3l58.4-33.7V146.3z
		 M119.1,131.9l-63.4,36.6l-6.7-3.9l70.1-40.5V131.9z M119.1,118.4l-75.2,43.4l-6.3-3.6l81.5-47V118.4z M119.1,105.3l-86.5,49.9
		l-7-4.1l93.5-54V105.3z M119.1,87.7v3.7l-98.5,56.9l-3.5-2v-3.7l98.5-56.9L119.1,87.7z M110.6,82.8l-93.5,54v-7.7L103.9,79
		L110.6,82.8z M98.9,76.1l-81.8,47.2v-7.7l75.1-43.4L98.9,76.1z M87.2,69.3l-70.1,40.5v-7.7l63.4-36.6L87.2,69.3z M17.1,96.3v-8.6
		l51-29.3l7.4,4.3L17.1,96.3z"></path>
	<polygon points="128.6,54.4 136,50.1 136,44.4 123.6,51.5 116.9,47.7 136,36.6 136,30.9 111.9,44.8 105.6,41.1 
		136,23.6 136,17.8 100.6,38.3 93.5,34.2 136,9.7 136,3.9 88.5,31.3 85.1,29.3 85.1,25.6 129.4,0 119.4,0 85.1,19.8 85.1,12.1 
		106,0 96,0 85.1,6.3 85.1,0 73.1,0 73.1,36.3 136,72.5 136,58.6 	"></polygon>
	<polygon points="6.7,0 0,3.9 0,9.7 16.7,0 	"></polygon>
	<polygon points="30.8,0 0,17.8 0,23.6 40.8,0 	"></polygon>
	<polygon points="63.1,36.3 63.1,0 51.1,0 51.1,1.4 0,30.9 0,36.6 51.1,7.2 51.1,14.9 0,44.4 0,50.1 51.1,20.7 
		51.1,29.3 0,58.7 0,58.6 0,72.5 0.1,72.5 	"></polygon>
</g></g></pattern></defs><rect width="100%" height="100%" id="RctSolidBackground1" fill="url(#pattern-279-layer-1)"></rect></svg>