<svg xmlns="http://www.w3.org/2000/svg" version="1.1" xmlns:xlink="http://www.w3.org/1999/xlink" xmlns:svgjs="http://svgjs.com/svgjs" id="svg-pattern-291" width="100%" height="100%"><defs><pattern x="0" y="0" width="60" height="205.5" patternUnits="userSpaceOnUse" id="pattern-291-layer-1"><g id="PatternRootContent1" transform="scale(0.5)"><rect class="fill0" width="120" height="411" fill="#f24c3d"></rect>
<g class="fill1" fill="#a6372d">
	<path d="M120,2.8L72.4,30.4l-3.4-2v-3.7L113.3,0h-10L69,18.9v-7.7L90,0h-10L69,5.4V0h-6h-6h-6v0.4L0,29.9v5.8L51,6.2
		v7.7L0,43.4v5.8l51-29.4v8.6L0,57.7v6.1v0.1v7.6v60.6v7.6v0.1v6.1l7.3,4.2L0,154.4v5.8l12.4-7.1l6.6,3.9L0,167.9v5.8l24.1-13.9
		l6.6,3.9L0,181.4v5.8l35.8-20.6l6.6,3.9L0,194.9v5.8l47.5-27.4l3.5,2v3.7L0,208.3v5.8l51-29.4v8.1L0,222.3v5.8l51-29.4v7.3L0,235.4
		v5.8l51-29.4v7.7L0,248.9v5.8l51-29.4v8.6L0,263.2v6.1v0.1v7.6v60.6v7.6v0.1v6.1l7.3,4.2L0,359.9v5.8l12.4-7.1l6.6,3.9L0,373.4v5.8
		l24.1-13.9l6.6,3.9L0,386.9v5.8L35.8,372l6.6,3.9L0,400.4v5.8l47.5-27.4l3.5,2v3.7L6.7,411h10L51,390.2v8.1L30.8,411h10l10.2-6.8
		v6.8h6h6h6v-2.4l51-29.5v-5.8l-51,29.5v-7.7l51-29.5v-5.8l-51,29.5v-8.6l51-29.3v0v-6.1v-0.1v-7.6V277v-7.6v-0.1v-6.1v0l-7.5-4.3
		l7.5-4.3v-5.8l-12.4,7.2l-6.8-3.9l19.2-11.1v-5.8l-24.1,14l-6.4-3.6L120,228v-5.8l-35.5,20.5l-7.1-4.1l42.6-24.6v-5.8l-47.6,27.5
		l-3.4-2v-3.7l51-29.5v-5.8l-51,29.5v-7.7l51-29.5v-5.8l-51,29.5v-7.7l51-29.5v-5.8l-51,29.5v-7.7l51-29.5v-5.8l-51,29.5v-8.6
		l51-29.3v0v-6.1v-0.1v-7.6V71.5v-7.6v-0.1v-6.1v0l-7.5-4.3l7.5-4.3v-5.8l-12.4,7.2l-6.8-3.9L120,35.6v-5.8l-24.1,14l-6.4-3.6
		L120,22.5v-5.8L84.5,37.3l-7.1-4.1L120,8.6V2.8z M72.5,50.3l6.7,3.9L9,94.6v-7.7L72.5,50.3z M9,81.1v-8.6l51.1-29.3l7.4,4.3L9,81.1
		z M84.2,57l6.7,3.9L9,108.1v-7.7L84.2,57z M95.9,63.8l6.7,3.9L9,121.6v-7.7L95.9,63.8z M9,127.4l98.5-56.9l3.5,2v3.7l-98.5,56.9
		l-3.5-2V127.4z M111,95.9v7.3l-75.1,43.4l-6.4-3.6L111,95.9z M24.6,140l-7.1-4.1L111,82v8.1L24.6,140z M111,109v7.7l-63.4,36.6
		l-6.7-3.9L111,109z M111,122.5v8.6l-50.9,29.3l-7.4-4.3L111,122.5z M72.5,255.8l6.7,3.9L9,300.1v-7.7L72.5,255.8z M9,286.6V278
		l51.1-29.3l7.4,4.3L9,286.6z M84.2,262.5l6.7,3.9L9,313.6v-7.7L84.2,262.5z M95.9,269.3l6.7,3.9L9,327.1v-7.7L95.9,269.3z M9,332.9
		l98.5-56.9l3.5,2v3.7l-98.5,56.9l-3.5-2V332.9z M111,301.4v7.3l-75.1,43.4l-6.4-3.6L111,301.4z M24.6,345.5l-7.1-4.1l93.5-54v8.1
		L24.6,345.5z M111,314.5v7.7l-63.4,36.6l-6.7-3.9L111,314.5z M111,328v8.6L60.1,366l-7.4-4.3L111,328z"></path>
	<polygon points="6.7,0 0,2.8 0,8.6 16.7,0 	"></polygon>
	<polygon points="30.8,0 0,16.8 0,22.5 40.8,0 	"></polygon>
	<polygon points="113.3,411 120,406.1 120,400.4 103.3,411 	"></polygon>
	<polygon points="90,411 120,392.6 120,386.9 79.9,411 	"></polygon>
</g></g></pattern></defs><rect width="100%" height="100%" id="RctSolidBackground1" fill="url(#pattern-291-layer-1)"></rect></svg>