<svg xmlns="http://www.w3.org/2000/svg" version="1.1" xmlns:xlink="http://www.w3.org/1999/xlink" xmlns:svgjs="http://svgjs.com/svgjs" id="svg-pattern-299" width="100%" height="100%"><defs><pattern x="0" y="0" width="45" height="73.8" patternUnits="userSpaceOnUse" id="pattern-299-layer-1"><g id="PatternRootContent1" transform="scale(0.3)"><rect y="0" class="fill0" width="150" height="246" fill="#c25842"></rect>
<g class="fill1" fill="#a6433e">
	<path d="M150,177.4c-4.1,0-8.2,0.9-11.3,2.7l-40.5,23.3c-6.2,3.6-11.3,12.3-11.3,19.5V246h63V177.4z"></path>
	<path d="M51.7,203.3L11.3,180c-3.1-1.8-7.2-2.7-11.3-2.7V246h63v-23.2C63,215.6,57.9,206.9,51.7,203.3z"></path>
	<path d="M126.7,80.3L86.3,57c-6.2-3.6-16.3-3.6-22.5,0L23.3,80.3C17.1,83.9,12,92.6,12,99.8v46.5
		c0,7.2,5.1,15.9,11.3,19.5l40.5,23.3c6.2,3.6,16.3,3.6,22.5,0l40.5-23.3c6.2-3.6,11.3-12.3,11.3-19.5V99.8
		C138,92.6,132.9,83.9,126.7,80.3z"></path>
	<path d="M87,0v23.3c0,7.2,5.1,15.9,11.3,19.5l40.5,23.3c3.1,1.8,7.2,2.7,11.3,2.7V0H87z"></path>
	<path d="M51.7,42.8C57.9,39.2,63,30.4,63,23.3V0H0v68.7c4.1,0,8.2-0.9,11.3-2.7L51.7,42.8z"></path>
</g></g></pattern></defs><rect width="100%" height="100%" id="RctSolidBackground1" fill="url(#pattern-299-layer-1)"></rect></svg>