<svg xmlns="http://www.w3.org/2000/svg" version="1.1" xmlns:xlink="http://www.w3.org/1999/xlink" xmlns:svgjs="http://svgjs.com/svgjs" id="svg-pattern-526" width="100%" height="100%"><defs><pattern x="0" y="0" width="337.5" height="341" patternUnits="userSpaceOnUse" id="pattern-526-layer-1"><g id="PatternRootContent1" transform="scale(0.5)"><rect class="fill0" width="675" height="682" fill="#bdbdb0"></rect>
<path class="fill1" d="M59.738,2.015c0.367-0.636,0.537-1.33,0.536-2.015H0v4.026c0.621,0,1.233-0.142,1.788-0.416l24.108,41.757
	c-1.756,1.167-2.327,3.511-1.259,5.362c0.321,0.556,0.757,1.003,1.258,1.336l-24.11,41.76c-0.572-0.284-1.182-0.42-1.786-0.42v8.048
	c0.621-0.001,1.233-0.142,1.788-0.416l22.094,38.269c-3.681,2.283-4.913,7.086-2.733,10.864c0.688,1.192,1.636,2.14,2.729,2.817
	L1.786,191.254c-0.572-0.284-1.182-0.42-1.786-0.42v8.048c0.621,0,1.233-0.142,1.788-0.416l25.121,43.512
	c-0.794,0.605-1.04,1.713-0.528,2.601c0.138,0.239,0.317,0.438,0.524,0.595L1.786,288.682c-0.572-0.284-1.182-0.42-1.786-0.42v8.048
	c0.621-0.001,1.233-0.142,1.788-0.416l23.101,40.013c-2.718,1.726-3.62,5.298-1.995,8.113c0.505,0.874,1.196,1.571,1.994,2.077
	L1.786,386.11c-0.572-0.284-1.182-0.42-1.786-0.42v8.048c0.621-0.001,1.233-0.142,1.788-0.416l24.108,41.757
	c-1.756,1.167-2.327,3.511-1.259,5.362c0.321,0.556,0.757,1.003,1.258,1.336l-24.11,41.76c-0.572-0.284-1.182-0.42-1.786-0.42v8.048
	c0.621,0,1.233-0.142,1.788-0.416l24.108,41.757c-1.756,1.167-2.327,3.511-1.259,5.362c0.321,0.556,0.757,1.003,1.258,1.336
	l-24.11,41.76c-0.572-0.284-1.182-0.42-1.786-0.42v8.048c0.621,0,1.233-0.142,1.788-0.416l25.121,43.512
	c-0.794,0.605-1.04,1.713-0.528,2.601c0.138,0.239,0.317,0.438,0.524,0.595L1.786,678.395c-0.572-0.284-1.182-0.42-1.786-0.42V682
	h60.274c-0.001-1.31-0.642-2.583-1.796-3.349l22.097-38.273c2.453,1.315,5.296,1.231,7.599,0l22.097,38.273
	c-1.154,0.767-1.794,2.039-1.796,3.349h120.548c-0.001-1.31-0.642-2.583-1.795-3.35l24.111-41.76
	c1.159,0.575,2.479,0.544,3.574,0.003l22.094,38.27c-2.443,1.514-3.804,4.136-3.806,6.837h122.554c0-0.614-0.28-1.206-0.789-1.595
	l25.123-43.516c1.16,0.575,2.479,0.544,3.573,0.003l24.109,41.757c-1.154,0.767-1.794,2.04-1.795,3.35h120.548
	c0-1.311-0.641-2.584-1.795-3.351l24.111-41.76c1.16,0.575,2.478,0.544,3.573,0.003l24.109,41.758
	c-1.155,0.767-1.795,2.04-1.796,3.35H675v-4.026c-0.62,0.001-1.234,0.142-1.788,0.416l-22.091-38.262
	c1.094-0.677,2.042-1.625,2.73-2.817c2.181-3.778,0.948-8.581-2.733-10.864l22.096-38.273c0.572,0.284,1.182,0.421,1.786,0.42
	v-8.048c-0.62,0.001-1.234,0.142-1.788,0.416l-24.109-41.756c0.501-0.333,0.938-0.78,1.26-1.337c1.069-1.851,0.497-4.195-1.26-5.362
	l24.111-41.761c0.572,0.284,1.182,0.421,1.786,0.42v-8.048c-0.62,0.001-1.234,0.142-1.788,0.416l-24.109-41.756
	c0.501-0.333,0.938-0.78,1.26-1.337c1.069-1.851,0.497-4.195-1.26-5.362l24.111-41.761c0.572,0.284,1.182,0.421,1.786,0.42v-8.048
	c-0.62,0.001-1.234,0.142-1.788,0.416l-24.109-41.756c0.501-0.333,0.938-0.78,1.26-1.336c1.069-1.852,0.497-4.195-1.26-5.362
	l24.111-41.761c0.572,0.284,1.182,0.421,1.786,0.42v-8.048c-0.62,0.001-1.234,0.142-1.788,0.416l-25.117-43.504
	c0.207-0.157,0.387-0.357,0.524-0.595c0.511-0.887,0.266-1.995-0.528-2.601l25.123-43.516c0.572,0.284,1.182,0.421,1.786,0.42
	v-8.048c-0.62,0.001-1.234,0.142-1.788,0.416l-24.109-41.756c0.501-0.333,0.938-0.78,1.26-1.337c1.069-1.852,0.497-4.195-1.26-5.362
	l24.111-41.761c0.572,0.284,1.182,0.421,1.786,0.42v-8.048c-0.62,0.001-1.234,0.142-1.788,0.416l-24.109-41.756
	c0.501-0.333,0.938-0.78,1.26-1.337c1.069-1.851,0.497-4.195-1.26-5.362l24.111-41.761c0.572,0.284,1.182,0.421,1.786,0.42V0
	h-60.275c0,0.684,0.17,1.378,0.536,2.013c0.322,0.556,0.758,1.003,1.26,1.337L593.92,42.494c-2.13-1.13-4.591-1.06-6.592-0.003
	L564.729,3.349c0.501-0.333,0.938-0.78,1.259-1.337c0.367-0.635,0.537-1.329,0.536-2.013H445.976
	c-0.001,0.684,0.17,1.379,0.536,2.014c0.321,0.556,0.757,1.003,1.259,1.337l-24.111,41.76c-1.159-0.576-2.478-0.545-3.573-0.004
	L394.97,1.602c0.207-0.157,0.387-0.357,0.524-0.595c0.183-0.318,0.262-0.664,0.261-1.007H273.201
	c-0.001,1.369,0.339,2.757,1.073,4.027c0.688,1.192,1.636,2.14,2.73,2.817l-22.093,38.266c-1.16-0.575-2.479-0.544-3.573-0.004
	L227.229,3.35c0.501-0.333,0.937-0.78,1.259-1.337c0.367-0.635,0.537-1.329,0.536-2.014H108.476
	c-0.001,0.685,0.169,1.379,0.536,2.015c0.321,0.556,0.758,1.003,1.259,1.337l-24.11,41.76c-1.16-0.576-2.479-0.545-3.573-0.004
	L58.479,3.351C58.98,3.018,59.417,2.571,59.738,2.015z M142.854,45.366l24.111-41.76c1.159,0.575,2.479,0.544,3.574,0.003
	l24.612,42.629c-1.276,0.886-1.681,2.617-0.891,3.987c0.23,0.398,0.538,0.721,0.891,0.966l-24.615,42.634
	c-1.16-0.575-2.479-0.545-3.573-0.004l-24.109-41.756c0.501-0.333,0.938-0.78,1.259-1.337
	C145.182,48.878,144.61,46.533,142.854,45.366z M339.288,3.609l24.109,41.757c-1.756,1.167-2.327,3.511-1.26,5.362
	c0.322,0.557,0.758,1.003,1.259,1.336l-23.103,40.016c-1.807-0.944-3.888-0.887-5.586-0.003l-23.103-40.014
	c0.501-0.333,0.938-0.78,1.259-1.336c1.069-1.852,0.497-4.195-1.259-5.362l24.111-41.761C336.874,4.18,338.193,4.149,339.288,3.609z
	 M479.913,52.322l24.108,41.757c-0.501,0.333-0.937,0.78-1.259,1.336c-0.321,0.556-0.489,1.158-0.527,1.758h-50.237
	c-0.033-0.257-0.116-0.512-0.254-0.751c-0.512-0.887-1.595-1.228-2.516-0.843l-25.123-43.515c0.501-0.333,0.938-0.78,1.259-1.336
	c0.322-0.556,0.49-1.157,0.528-1.758h48.215c0.084,1.299,0.794,2.532,2.006,3.231C477.323,52.901,478.746,52.899,479.913,52.322z
	 M564.287,101.036l23.1,40.01c-0.797,0.505-1.489,1.202-1.994,2.076c-0.504,0.874-0.762,1.822-0.801,2.765h-48.22
	c-0.033-0.257-0.116-0.512-0.254-0.751c-0.511-0.887-1.594-1.228-2.515-0.843l-25.123-43.515c0.5-0.333,0.937-0.779,1.258-1.336
	c0.322-0.556,0.49-1.158,0.528-1.758h48.216c0.084,1.299,0.793,2.532,2.005,3.231C561.698,101.615,563.121,101.613,564.287,101.036z
	 M504.021,100.778l-24.111,41.76c-1.889-0.938-4.204-0.261-5.273,1.59c-0.322,0.557-0.49,1.158-0.528,1.759h-48.215
	c-0.079-1.219-0.712-2.376-1.79-3.093l25.123-43.515c0.559,0.233,1.215,0.22,1.779-0.107c0.565-0.327,0.905-0.887,0.983-1.488
	h50.242C502.31,98.903,502.942,100.061,504.021,100.778z M479.913,149.75l24.108,41.757c-0.501,0.333-0.937,0.78-1.259,1.336
	c-0.321,0.556-0.489,1.158-0.527,1.758H458.05c-0.039-1.286-0.387-2.58-1.074-3.772c-2.182-3.777-6.957-5.111-10.775-3.065
	l-22.097-38.272c0.501-0.333,0.938-0.78,1.259-1.336c0.322-0.556,0.49-1.157,0.528-1.758h48.215
	c0.084,1.299,0.794,2.532,2.006,3.231C477.323,150.329,478.746,150.327,479.913,149.75z M564.287,198.464l25.117,43.504
	c-0.207,0.157-0.386,0.356-0.523,0.595s-0.221,0.494-0.254,0.751h-50.237c-0.038-0.6-0.207-1.201-0.528-1.758
	c-1.068-1.852-3.383-2.529-5.273-1.591l-24.11-41.76c0.5-0.333,0.937-0.779,1.258-1.336c0.322-0.556,0.49-1.158,0.528-1.758h48.216
	c0.084,1.299,0.793,2.532,2.005,3.231C561.698,199.043,563.121,199.041,564.287,198.464z M504.021,198.206l-24.111,41.76
	c-1.889-0.938-4.204-0.261-5.273,1.59c-0.322,0.557-0.49,1.158-0.528,1.759h-48.215c-0.079-1.219-0.712-2.376-1.79-3.093
	l22.096-38.272c2.374,1.268,5.325,1.327,7.826-0.118c2.503-1.445,3.929-4.031,4.017-6.721h44.189
	C502.31,196.331,502.942,197.489,504.021,198.206z M479.913,247.178l24.108,41.757c-0.501,0.333-0.937,0.78-1.259,1.336
	c-0.321,0.556-0.489,1.158-0.527,1.758h-50.237c-0.033-0.257-0.116-0.512-0.254-0.751c-0.512-0.887-1.595-1.228-2.516-0.843
	l-25.123-43.515c0.501-0.333,0.938-0.78,1.259-1.336c0.322-0.556,0.49-1.157,0.528-1.758h48.215
	c0.084,1.299,0.794,2.532,2.006,3.231C477.323,247.758,478.746,247.755,479.913,247.178z M564.287,295.893l24.109,41.757
	c-0.501,0.333-0.938,0.779-1.259,1.336c-0.322,0.556-0.49,1.158-0.528,1.758h-48.218c-0.038-0.6-0.207-1.201-0.528-1.758
	c-1.068-1.851-3.383-2.529-5.273-1.591l-24.11-41.76c0.5-0.333,0.937-0.779,1.258-1.336c0.322-0.556,0.49-1.158,0.528-1.758h48.216
	c0.084,1.299,0.793,2.532,2.005,3.231C561.698,296.471,563.121,296.469,564.287,295.893z M504.021,295.634l-24.111,41.76
	c-1.889-0.938-4.204-0.261-5.273,1.59c-0.322,0.557-0.49,1.158-0.528,1.759h-50.245c-0.067-0.52-0.336-1.004-0.773-1.338
	l26.136-45.27c0.559,0.233,1.215,0.22,1.779-0.107c0.565-0.327,0.905-0.887,0.983-1.488h50.242
	C502.31,293.759,502.942,294.917,504.021,295.634z M479.913,344.607l25.118,43.504c-0.207,0.157-0.387,0.357-0.524,0.595
	c-0.138,0.239-0.221,0.494-0.253,0.751h-50.238c-0.037-0.6-0.206-1.202-0.527-1.758c-1.069-1.851-3.384-2.528-5.273-1.591
	l-25.119-43.508c0.207-0.157,0.387-0.356,0.524-0.594c0.138-0.239,0.22-0.494,0.253-0.751h50.234
	c0.084,1.299,0.794,2.532,2.006,3.231C477.323,345.186,478.746,345.184,479.913,344.607z M566.299,396.806l23.106,40.019
	c-0.207,0.157-0.386,0.356-0.523,0.595s-0.221,0.494-0.254,0.751h-50.237c-0.038-0.6-0.207-1.201-0.528-1.758
	c-1.068-1.852-3.383-2.529-5.273-1.591l-25.118-43.508c0.206-0.157,0.386-0.356,0.523-0.594c0.138-0.239,0.22-0.494,0.253-0.751
	h46.21c0.088,2.69,1.513,5.275,4.016,6.719C560.975,398.133,563.926,398.075,566.299,396.806z M505.034,391.308l-25.627,44.387
	c-1.406-0.662-3.108-0.148-3.898,1.222c-0.23,0.398-0.356,0.826-0.392,1.256h-46.206c-0.084-2.262-1.255-4.429-3.297-5.709
	l22.598-39.141c1.167,0.577,2.59,0.579,3.801-0.12c1.212-0.7,1.921-1.934,2.005-3.232h50.242
	C504.327,390.49,504.597,390.974,505.034,391.308z M479.407,441.16l25.117,43.505c-0.354,0.246-0.661,0.568-0.891,0.966
	c-0.229,0.398-0.355,0.826-0.391,1.255h-51.246c-0.033-0.257-0.116-0.512-0.254-0.751c-0.512-0.887-1.595-1.228-2.516-0.843
	l-23.61-40.894c0.945-0.591,1.765-1.414,2.361-2.447c0.596-1.033,0.898-2.154,0.938-3.267h46.2c0.082,0.95,0.609,1.847,1.498,2.359
	C477.503,441.556,478.543,441.565,479.407,441.16z M564.287,490.749l22.595,39.136c-0.945,0.591-1.765,1.413-2.361,2.446
	c-0.596,1.033-0.898,2.154-0.938,3.268h-45.193c-0.038-0.6-0.207-1.201-0.528-1.758c-1.068-1.851-3.383-2.529-5.273-1.591
	l-24.614-42.634c0.354-0.246,0.661-0.568,0.891-0.965c0.229-0.398,0.355-0.826,0.391-1.255h49.225
	c0.084,1.299,0.793,2.532,2.005,3.231C561.698,491.328,563.121,491.326,564.287,490.749z M504.525,489.619l-24.614,42.632
	c-1.889-0.938-4.204-0.261-5.273,1.59c-0.322,0.557-0.49,1.158-0.528,1.759h-48.215c-0.079-1.218-0.712-2.376-1.79-3.093
	l25.123-43.515c0.559,0.233,1.215,0.22,1.779-0.107c0.565-0.327,0.905-0.887,0.983-1.488h51.253
	C503.316,488.268,503.767,489.092,504.525,489.619z M479.913,539.464l25.118,43.504c-0.207,0.157-0.387,0.357-0.524,0.595
	c-0.138,0.239-0.221,0.494-0.253,0.751H458.05c-0.039-1.286-0.387-2.58-1.074-3.772c-2.182-3.777-6.957-5.111-10.775-3.065
	l-22.097-38.272c0.501-0.333,0.938-0.78,1.259-1.336c0.322-0.556,0.49-1.157,0.528-1.758h48.215
	c0.084,1.299,0.794,2.532,2.006,3.231C477.323,540.043,478.746,540.04,479.913,539.464z M564.287,588.178l24.109,41.756
	c-0.501,0.333-0.938,0.78-1.259,1.336c-0.322,0.556-0.49,1.158-0.528,1.758h-48.218c-0.038-0.6-0.207-1.201-0.528-1.758
	c-1.068-1.851-3.383-2.529-5.273-1.591l-25.118-43.508c0.206-0.157,0.386-0.356,0.523-0.594c0.138-0.239,0.22-0.494,0.253-0.751
	h50.235c0.084,1.299,0.793,2.532,2.005,3.231C561.698,588.757,563.121,588.755,564.287,588.178z M505.034,586.164l-25.124,43.515
	c-1.889-0.938-4.204-0.261-5.273,1.59c-0.322,0.557-0.49,1.158-0.528,1.759h-48.215c-0.079-1.218-0.712-2.376-1.79-3.093
	l22.096-38.272c2.374,1.268,5.325,1.327,7.826-0.118c2.503-1.445,3.929-4.031,4.017-6.721h46.217
	C504.327,585.346,504.597,585.83,505.034,586.164z M335.712,678.391l-25.118-43.504c0.207-0.157,0.386-0.357,0.524-0.595
	c0.512-0.888,0.265-1.996-0.528-2.601l25.124-43.516c1.16,0.575,2.479,0.544,3.573,0.004l24.109,41.757
	c-1.756,1.167-2.327,3.511-1.26,5.362c0.322,0.556,0.758,1.003,1.259,1.337l-24.11,41.76
	C338.126,677.819,336.807,677.85,335.712,678.391z M196.103,631.436l-25.123-43.515c0.501-0.333,0.937-0.78,1.258-1.336
	s0.49-1.158,0.528-1.758h49.226c0.082,0.95,0.609,1.846,1.498,2.359c0.889,0.513,1.928,0.521,2.792,0.117l24.614,42.631
	c-0.501,0.333-0.937,0.78-1.259,1.336c-0.321,0.556-0.49,1.158-0.528,1.758h-50.237c-0.033-0.257-0.115-0.512-0.253-0.751
	C198.107,631.391,197.024,631.05,196.103,631.436z M110.714,580.967L86.1,538.333c0.353-0.246,0.661-0.568,0.891-0.966
	c0.23-0.398,0.355-0.826,0.391-1.254h49.225c0.084,1.299,0.794,2.532,2.005,3.232c1.211,0.699,2.634,0.697,3.801,0.12l24.109,41.756
	c-0.501,0.333-0.938,0.78-1.259,1.336c-0.321,0.556-0.49,1.158-0.528,1.758h-48.219c-0.038-0.6-0.207-1.202-0.528-1.758
	C114.919,580.706,112.603,580.029,110.714,580.967z M170.979,581.223l23.103-40.015c1.77,0.922,3.956,0.952,5.813-0.119
	c1.858-1.072,2.925-2.982,3.011-4.977h48.23c0.067,0.52,0.336,1.004,0.774,1.339l-25.627,44.387
	c-1.406-0.662-3.108-0.148-3.898,1.222c-0.23,0.398-0.355,0.826-0.391,1.255h-49.224
	C172.69,583.097,172.057,581.939,170.979,581.223z M312.671,542.078l22.6,39.143c-0.501,0.333-0.937,0.78-1.259,1.336
	c-0.322,0.556-0.49,1.158-0.528,1.758h-48.219c-0.038-0.6-0.207-1.201-0.528-1.758c-1.068-1.852-3.384-2.529-5.273-1.591
	l-25.119-43.508c0.206-0.157,0.386-0.356,0.523-0.594c0.138-0.239,0.221-0.494,0.253-0.751l47.216,0.001
	c0.088,2.341,1.333,4.588,3.513,5.847C308.031,543.218,310.599,543.173,312.671,542.078z M226.726,582.094l25.627-44.387
	c0.508,0.212,1.062,0.203,1.546,0.001l25.122,43.514c-1.756,1.167-2.328,3.511-1.259,5.362c0.321,0.556,0.758,1.004,1.259,1.337
	l-24.111,41.76c-1.16-0.575-2.479-0.545-3.573-0.004l-24.613-42.63c0.354-0.246,0.662-0.569,0.891-0.966
	C228.407,584.711,228.001,582.98,226.726,582.094z M255.354,629.936l24.109-41.758c1.167,0.577,2.589,0.579,3.801-0.12
	c1.212-0.699,1.921-1.933,2.005-3.232h48.213c0.078,1.219,0.712,2.377,1.79,3.093l-25.123,43.516
	c-0.921-0.385-2.004-0.044-2.516,0.843c-0.138,0.239-0.221,0.494-0.253,0.752l-50.234,0
	C257.065,631.811,256.432,630.653,255.354,629.936z M395.537,588.178l24.109,41.756c-0.501,0.333-0.938,0.78-1.259,1.337
	c-0.322,0.556-0.49,1.158-0.528,1.758h-48.218c-0.038-0.6-0.207-1.202-0.527-1.758c-1.069-1.851-3.385-2.528-5.274-1.591
	l-24.11-41.76c0.501-0.333,0.937-0.78,1.259-1.337c0.321-0.556,0.489-1.157,0.527-1.758l48.216,0.001
	c0.084,1.298,0.794,2.532,2.005,3.231C392.948,588.758,394.37,588.755,395.537,588.178z M443.024,588.598
	c0.688,1.192,1.635,2.14,2.729,2.817L423.66,629.68c-1.159-0.575-2.478-0.545-3.573-0.004l-24.109-41.756
	c0.501-0.333,0.938-0.78,1.26-1.337c1.069-1.851,0.496-4.195-1.26-5.362l24.111-41.761c1.16,0.575,2.479,0.544,3.573,0.004
	l22.095,38.269C442.076,580.016,440.844,584.82,443.024,588.598z M419.647,539.205l-24.111,41.76
	c-1.889-0.938-4.205-0.26-5.274,1.591c-0.322,0.557-0.49,1.158-0.527,1.759l-48.216,0c-0.078-1.218-0.711-2.376-1.79-3.093
	l24.109-41.757c1.167,0.577,2.59,0.579,3.802-0.12c1.212-0.7,1.921-1.933,2.005-3.232h48.213
	C417.935,537.331,418.568,538.489,419.647,539.205z M362.137,537.87c0.322,0.556,0.758,1.003,1.259,1.337l-24.11,41.76
	c-1.16-0.575-2.479-0.544-3.573-0.003l-22.596-39.136c0.946-0.591,1.765-1.414,2.362-2.447c1.903-3.296,0.835-7.484-2.364-9.488
	l22.6-39.145c1.16,0.575,2.479,0.544,3.573,0.003l24.109,41.757C361.64,533.675,361.069,536.018,362.137,537.87z M194.083,530.508
	l-23.103-40.016c0.501-0.333,0.937-0.78,1.258-1.336s0.49-1.158,0.528-1.758h48.216c0.084,1.299,0.794,2.532,2.005,3.231
	c1.211,0.699,2.634,0.697,3.801,0.12l25.118,43.504c-0.207,0.157-0.386,0.357-0.524,0.595c-0.138,0.239-0.221,0.494-0.253,0.751
	h-48.22c-0.039-0.943-0.297-1.89-0.801-2.764C200.482,530.022,196.936,529.017,194.083,530.508z M110.714,483.539l-24.11-41.76
	c0.501-0.333,0.937-0.78,1.259-1.336s0.49-1.157,0.528-1.758h45.198c0.088,2.342,1.334,4.589,3.513,5.847
	c2.179,1.258,4.748,1.214,6.82,0.119l22.6,39.143c-0.501,0.333-0.938,0.78-1.259,1.336c-0.321,0.556-0.49,1.158-0.528,1.758h-48.219
	c-0.038-0.6-0.207-1.202-0.528-1.758C114.919,483.278,112.603,482.601,110.714,483.539z M170.979,483.794l24.614-42.633
	c0.864,0.404,1.904,0.396,2.792-0.117c0.889-0.513,1.417-1.41,1.498-2.36h49.223c0.079,1.219,0.712,2.376,1.79,3.094l-24.111,41.76
	c-1.889-0.937-4.205-0.261-5.274,1.591c-0.321,0.556-0.49,1.158-0.528,1.759h-48.216
	C172.69,485.668,172.057,484.511,170.979,483.794z M311.162,442.036l24.109,41.756c-0.501,0.333-0.937,0.78-1.259,1.336
	c-0.322,0.556-0.49,1.158-0.528,1.758h-49.227c-0.036-0.429-0.162-0.857-0.391-1.254c-0.79-1.371-2.492-1.884-3.898-1.223
	l-24.613-42.632c0.501-0.333,0.937-0.78,1.258-1.336s0.49-1.158,0.528-1.758l48.216,0.001c0.084,1.298,0.793,2.532,2.005,3.231
	C308.573,442.616,309.996,442.613,311.162,442.036z M227.229,483.793l24.111-41.76c1.159,0.575,2.479,0.544,3.574,0.003
	l24.611,42.629c-1.276,0.887-1.681,2.617-0.89,3.987c0.23,0.398,0.538,0.721,0.891,0.966l-25.628,44.389
	c-0.508-0.213-1.061-0.204-1.546-0.002l-25.123-43.513c0.501-0.333,0.937-0.78,1.259-1.337
	C229.556,487.305,228.985,484.96,227.229,483.793z M254.341,534.263l25.627-44.387c0.864,0.404,1.904,0.396,2.792-0.118
	c0.889-0.513,1.416-1.409,1.498-2.36h49.223c0.078,1.219,0.712,2.377,1.79,3.093l-22.6,39.145c-3.335-1.769-7.497-0.6-9.399,2.696
	c-0.597,1.033-0.899,2.154-0.938,3.269l-47.219,0C255.047,535.08,254.779,534.597,254.341,534.263z M395.537,490.75l24.109,41.756
	c-0.501,0.333-0.938,0.78-1.259,1.337c-0.322,0.556-0.49,1.158-0.528,1.758h-48.218c-0.038-0.6-0.207-1.202-0.527-1.758
	c-1.069-1.851-3.385-2.528-5.274-1.591l-24.11-41.76c0.501-0.333,0.937-0.78,1.259-1.337c0.321-0.556,0.489-1.157,0.527-1.758
	l48.216,0c0.084,1.298,0.794,2.532,2.005,3.231C392.948,491.329,394.37,491.326,395.537,490.75z M448.256,488.149
	c0.138,0.239,0.318,0.438,0.523,0.595l-25.119,43.508c-1.159-0.575-2.478-0.545-3.573-0.003l-24.109-41.756
	c0.501-0.333,0.938-0.78,1.26-1.337c1.069-1.851,0.496-4.195-1.26-5.362l22.6-39.145c2.13,1.129,4.592,1.059,6.593,0.001
	l23.613,40.899C447.991,486.153,447.744,487.262,448.256,488.149z M418.136,444.393l-22.6,39.145
	c-1.889-0.938-4.205-0.261-5.274,1.59c-0.322,0.557-0.49,1.158-0.527,1.759l-48.216,0c-0.078-1.218-0.711-2.376-1.79-3.093
	l25.123-43.514c0.559,0.233,1.215,0.22,1.78-0.107s0.905-0.887,0.983-1.488h47.223C414.923,440.945,416.093,443.112,418.136,444.393
	z M363.881,439.435c0.138,0.239,0.318,0.437,0.524,0.595l-25.12,43.508c-1.16-0.575-2.479-0.544-3.573-0.003l-24.109-41.756
	c0.501-0.333,0.938-0.78,1.259-1.336c1.069-1.852,0.497-4.195-1.259-5.362l24.111-41.761c1.16,0.575,2.479,0.544,3.573,0.003
	l25.121,43.512C363.615,437.44,363.369,438.547,363.881,439.435z M195.593,435.696l-24.613-42.632
	c0.501-0.333,0.937-0.78,1.258-1.336s0.49-1.158,0.528-1.758h44.191c0.088,2.69,1.513,5.275,4.016,6.719
	c2.502,1.445,5.453,1.386,7.826,0.118l22.096,38.271c-0.501,0.333-0.937,0.78-1.259,1.336c-0.321,0.556-0.49,1.158-0.528,1.758
	h-49.227c-0.036-0.429-0.162-0.857-0.391-1.254C198.7,435.548,196.999,435.034,195.593,435.696z M110.714,386.11l-24.11-41.76
	c0.501-0.333,0.937-0.78,1.259-1.336c0.321-0.556,0.49-1.157,0.528-1.758h50.245c0.078,0.601,0.418,1.161,0.983,1.487
	c0.565,0.326,1.22,0.34,1.78,0.107l25.123,43.514c-0.501,0.333-0.938,0.78-1.259,1.336c-0.321,0.556-0.49,1.158-0.528,1.758h-48.219
	c-0.038-0.6-0.207-1.202-0.528-1.758C114.919,385.85,112.603,385.172,110.714,386.11z M170.979,386.366l24.109-41.758
	c1.166,0.577,2.589,0.579,3.801-0.12c1.212-0.7,1.922-1.934,2.005-3.232h50.242c0.067,0.52,0.336,1.004,0.774,1.339l-23.11,40.028
	c-3.818-2.047-8.594-0.713-10.775,3.065c-0.688,1.192-1.035,2.487-1.075,3.772h-44.181
	C172.69,388.24,172.057,387.082,170.979,386.366z M311.162,344.608l24.109,41.756c-0.501,0.333-0.937,0.78-1.259,1.336
	c-0.322,0.556-0.49,1.158-0.528,1.758h-48.219c-0.038-0.6-0.207-1.201-0.528-1.758c-1.068-1.852-3.384-2.529-5.273-1.591
	l-25.119-43.508c0.206-0.157,0.386-0.356,0.523-0.594c0.138-0.239,0.221-0.494,0.253-0.751l50.234,0.001
	c0.084,1.298,0.793,2.532,2.005,3.231C308.573,345.187,309.996,345.184,311.162,344.608z M229.243,382.877l23.11-40.028
	c0.508,0.212,1.062,0.203,1.546,0.001l25.122,43.514c-1.756,1.167-2.328,3.511-1.259,5.362c0.321,0.556,0.758,1.004,1.259,1.337
	l-24.111,41.76c-1.16-0.575-2.479-0.544-3.573-0.004l-22.091-38.262c1.093-0.677,2.041-1.625,2.729-2.817
	C234.156,389.963,232.923,385.159,229.243,382.877z M255.354,435.08l24.109-41.757c1.167,0.576,2.589,0.578,3.801-0.121
	c1.212-0.699,1.921-1.933,2.005-3.232h48.213c0.078,1.219,0.712,2.377,1.79,3.093l-24.11,41.761
	c-1.889-0.937-4.205-0.261-5.273,1.591c-0.321,0.556-0.49,1.158-0.528,1.759l-48.216,0
	C257.065,436.954,256.432,435.796,255.354,435.08z M395.537,393.321l22.595,39.136c-0.945,0.591-1.765,1.414-2.361,2.447
	c-0.596,1.033-0.899,2.154-0.938,3.268h-47.211c-0.032-0.257-0.115-0.512-0.253-0.751c-0.512-0.887-1.595-1.228-2.516-0.843
	l-25.124-43.515c0.501-0.333,0.937-0.78,1.259-1.337c0.321-0.556,0.489-1.157,0.527-1.758l48.216,0
	c0.084,1.298,0.794,2.532,2.005,3.231C392.948,393.901,394.37,393.898,395.537,393.321z M446.512,391.727
	c0.321,0.556,0.757,1.003,1.259,1.337l-22.599,39.144c-2.131-1.13-4.593-1.059-6.594-0.001l-22.599-39.142
	c0.501-0.333,0.938-0.78,1.26-1.337c1.069-1.851,0.496-4.195-1.26-5.362l25.123-43.515c0.508,0.212,1.062,0.203,1.546,0.001
	l25.122,43.514C446.015,387.532,445.444,389.875,446.512,391.727z M420.66,342.594l-25.124,43.516
	c-1.889-0.938-4.205-0.261-5.274,1.59c-0.322,0.557-0.49,1.158-0.527,1.759l-48.216-0.001c-0.078-1.218-0.711-2.376-1.79-3.093
	l23.103-40.015c1.771,0.922,3.958,0.953,5.815-0.119c1.857-1.072,2.923-2.982,3.01-4.976h48.23
	C419.952,341.776,420.221,342.26,420.66,342.594z M360.393,344.02c0.505,0.875,1.197,1.571,1.995,2.077l-23.102,40.013
	c-1.16-0.575-2.479-0.544-3.573-0.004l-24.109-41.756c0.501-0.333,0.938-0.78,1.259-1.337c1.069-1.851,0.497-4.195-1.259-5.362
	l25.123-43.516c0.508,0.212,1.062,0.203,1.547,0.001l24.116,41.77C359.67,337.633,358.768,341.205,360.393,344.02z M195.089,337.396
	l-24.11-41.76c0.501-0.333,0.937-0.78,1.258-1.336s0.49-1.158,0.528-1.758h48.216c0.084,1.299,0.794,2.532,2.005,3.231
	c1.211,0.699,2.634,0.697,3.801,0.12l25.118,43.504c-0.207,0.157-0.386,0.357-0.524,0.595s-0.221,0.494-0.253,0.751h-50.237
	c-0.038-0.6-0.207-1.201-0.528-1.758C199.294,337.135,196.979,336.458,195.089,337.396z M110.714,288.682l-24.11-41.76
	c0.501-0.333,0.937-0.78,1.259-1.336s0.49-1.157,0.528-1.758h50.245c0.078,0.601,0.418,1.161,0.983,1.487
	c0.565,0.326,1.22,0.34,1.78,0.107l25.123,43.514c-0.501,0.333-0.938,0.78-1.259,1.336c-0.321,0.556-0.49,1.158-0.528,1.758h-48.219
	c-0.038-0.6-0.207-1.202-0.528-1.758C114.919,288.421,112.603,287.744,110.714,288.682z M170.979,288.938l24.109-41.758
	c1.166,0.577,2.589,0.579,3.801-0.12c1.212-0.7,1.922-1.934,2.005-3.232h45.194c0.084,2.262,1.254,4.429,3.298,5.709l-22.6,39.145
	c-1.889-0.937-4.205-0.261-5.274,1.591c-0.321,0.556-0.49,1.158-0.528,1.759h-48.216
	C172.69,290.812,172.057,289.654,170.979,288.938z M311.162,247.179l25.118,43.504c-0.206,0.157-0.386,0.356-0.523,0.595
	c-0.138,0.239-0.221,0.494-0.254,0.751h-50.237c-0.038-0.6-0.207-1.201-0.528-1.758c-1.068-1.852-3.384-2.529-5.273-1.591
	l-22.596-39.139c0.945-0.591,1.764-1.413,2.36-2.446c0.597-1.033,0.899-2.154,0.938-3.268l45.19,0.001
	c0.084,1.298,0.793,2.532,2.005,3.231C308.573,247.759,309.996,247.756,311.162,247.179z M227.229,288.937l22.6-39.145
	c2.13,1.13,4.592,1.06,6.593,0.001l22.599,39.143c-1.756,1.167-2.328,3.511-1.259,5.362c0.321,0.556,0.758,1.004,1.259,1.337
	l-25.124,43.515c-0.508-0.213-1.061-0.204-1.546-0.002l-25.123-43.513c0.501-0.333,0.937-0.78,1.259-1.337
	C229.556,292.448,228.985,290.103,227.229,288.937z M254.341,339.406l25.122-43.512c1.167,0.576,2.589,0.578,3.801-0.121
	c1.212-0.699,1.921-1.933,2.005-3.232h50.242c0.067,0.521,0.336,1.004,0.775,1.338l-25.124,43.516
	c-1.889-0.937-4.205-0.261-5.273,1.591c-0.321,0.556-0.49,1.158-0.528,1.759l-50.245-0.001
	C255.047,340.224,254.779,339.74,254.341,339.406z M395.537,295.893l25.117,43.504c-0.206,0.157-0.386,0.357-0.523,0.595
	c-0.138,0.239-0.221,0.494-0.254,0.751h-48.219c-0.04-0.943-0.297-1.891-0.801-2.765c-1.625-2.814-5.172-3.819-8.025-2.328
	l-24.112-41.764c0.206-0.157,0.386-0.357,0.523-0.595c0.138-0.239,0.221-0.493,0.254-0.751l50.234,0
	c0.084,1.298,0.794,2.532,2.005,3.231C392.948,296.473,394.37,296.469,395.537,295.893z M448.256,293.292
	c0.138,0.239,0.318,0.438,0.523,0.595l-26.132,45.263c-0.507-0.212-1.061-0.203-1.545-0.002l-25.123-43.513
	c0.501-0.333,0.938-0.78,1.26-1.337c1.069-1.851,0.496-4.195-1.26-5.362l24.111-41.761c1.16,0.575,2.479,0.544,3.573,0.003
	l25.122,43.512C447.991,291.297,447.744,292.405,448.256,293.292z M419.647,246.92l-24.111,41.761
	c-1.889-0.938-4.205-0.261-5.274,1.59c-0.322,0.557-0.49,1.158-0.527,1.759l-50.245,0c-0.067-0.52-0.336-1.004-0.774-1.338
	l23.613-40.899c2.072,1.095,4.641,1.14,6.821-0.119c2.18-1.259,3.425-3.506,3.512-5.848h45.195
	C417.935,245.046,418.568,246.204,419.647,246.92z M359.521,247.095c0.596,1.033,1.416,1.856,2.362,2.447l-23.61,40.894
	c-0.509-0.212-1.062-0.203-1.547-0.001l-25.123-43.513c0.501-0.333,0.938-0.78,1.259-1.337c1.069-1.852,0.497-4.195-1.259-5.362
	l24.111-41.761c1.16,0.575,2.479,0.544,3.573,0.003l22.598,39.141C358.686,239.611,357.619,243.798,359.521,247.095z
	 M195.089,239.967l-22.092-38.266c1.093-0.677,2.041-1.625,2.729-2.816c0.688-1.192,1.035-2.486,1.075-3.772h44.181
	c0.084,1.299,0.794,2.532,2.005,3.231c1.211,0.699,2.634,0.697,3.801,0.12l22.596,39.136c-0.945,0.591-1.765,1.413-2.361,2.446
	c-0.596,1.033-0.899,2.154-0.938,3.268h-45.193c-0.038-0.6-0.207-1.201-0.528-1.758
	C199.294,239.707,196.979,239.029,195.089,239.967z M110.714,191.254l-24.11-41.76c0.501-0.333,0.937-0.78,1.259-1.336
	s0.49-1.157,0.528-1.758h49.226c0.082,0.95,0.61,1.846,1.498,2.359c0.888,0.513,1.928,0.521,2.792,0.117l22.596,39.138
	c-1.094,0.677-2.041,1.625-2.729,2.816c-0.688,1.192-1.035,2.486-1.075,3.772h-44.184c-0.038-0.6-0.207-1.202-0.528-1.758
	C114.919,190.993,112.603,190.316,110.714,191.254z M172.992,188.022l22.096-38.271c1.166,0.577,2.589,0.579,3.801-0.12
	c1.212-0.7,1.922-1.934,2.005-3.232h48.213c0.079,1.219,0.712,2.376,1.79,3.094l-24.111,41.76c-1.889-0.937-4.205-0.261-5.274,1.591
	c-0.321,0.556-0.49,1.158-0.528,1.759h-44.192C176.707,191.993,175.357,189.489,172.992,188.022z M310.148,147.994l25.123,43.513
	c-0.501,0.333-0.937,0.78-1.259,1.336c-0.322,0.556-0.49,1.158-0.528,1.758h-48.219c-0.038-0.6-0.207-1.201-0.528-1.758
	c-1.068-1.852-3.384-2.529-5.273-1.591l-24.109-41.76c0.501-0.333,0.937-0.78,1.258-1.336s0.49-1.158,0.528-1.758l50.245,0.001
	c0.078,0.601,0.417,1.161,0.983,1.488C308.934,148.213,309.588,148.227,310.148,147.994z M227.229,191.508l24.111-41.76
	c1.159,0.575,2.479,0.544,3.574,0.003l24.108,41.757c-1.756,1.167-2.328,3.511-1.259,5.362c0.321,0.556,0.758,1.004,1.259,1.337
	l-22.6,39.145c-2.13-1.13-4.592-1.06-6.592-0.003l-22.599-39.143c0.501-0.333,0.937-0.78,1.259-1.337
	C229.556,195.02,228.985,192.675,227.229,191.508z M256.864,237.608l22.599-39.142c1.167,0.576,2.589,0.578,3.801-0.121
	c1.212-0.699,1.921-1.933,2.005-3.232h48.213c0.078,1.219,0.712,2.377,1.79,3.093l-24.11,41.761
	c-1.889-0.937-4.205-0.261-5.273,1.591c-0.321,0.556-0.49,1.158-0.528,1.759l-45.198-0.001
	C260.077,241.054,258.907,238.887,256.864,237.608z M395.537,198.465l24.109,41.756c-0.501,0.333-0.938,0.78-1.259,1.336
	c-0.322,0.556-0.49,1.158-0.528,1.758h-45.193c-0.039-1.114-0.342-2.235-0.937-3.268c-1.903-3.296-6.065-4.466-9.401-2.697
	l-22.599-39.144c0.501-0.333,0.937-0.78,1.259-1.337c0.321-0.556,0.489-1.157,0.527-1.758l48.216,0.001
	c0.084,1.298,0.794,2.532,2.005,3.231C392.948,199.044,394.37,199.041,395.537,198.465z M443.024,198.884
	c0.688,1.192,1.635,2.14,2.729,2.817l-22.093,38.266c-1.159-0.576-2.478-0.545-3.573-0.004l-24.109-41.756
	c0.501-0.333,0.938-0.78,1.26-1.337c1.069-1.851,0.496-4.195-1.26-5.362l24.111-41.761c1.16,0.575,2.479,0.544,3.573,0.004
	l22.095,38.269C442.076,190.303,440.844,195.106,443.024,198.884z M419.647,149.492l-24.111,41.761
	c-1.889-0.938-4.205-0.261-5.274,1.59c-0.322,0.557-0.49,1.158-0.527,1.759l-48.216-0.001c-0.078-1.218-0.711-2.376-1.79-3.093
	l24.109-41.757c1.167,0.577,2.59,0.579,3.802-0.12c1.212-0.7,1.921-1.933,2.005-3.232h48.213
	C417.935,147.617,418.568,148.775,419.647,149.492z M362.137,148.156c0.322,0.557,0.758,1.003,1.259,1.337l-24.11,41.76
	c-1.16-0.575-2.479-0.544-3.573-0.004l-25.118-43.504c0.207-0.157,0.386-0.357,0.524-0.595c0.512-0.888,0.265-1.996-0.528-2.601
	l24.117-41.772c1.807,0.944,3.887,0.888,5.586,0.002l23.103,40.015C361.64,143.961,361.069,146.305,362.137,148.156z
	 M195.089,142.539l-24.11-41.76c0.501-0.333,0.937-0.78,1.258-1.336c0.321-0.556,0.49-1.158,0.528-1.758h50.245
	c0.078,0.601,0.417,1.161,0.983,1.487c0.565,0.327,1.22,0.341,1.78,0.107l25.123,43.513c-0.501,0.333-0.937,0.78-1.259,1.336
	c-0.321,0.556-0.49,1.158-0.528,1.758h-48.219c-0.038-0.6-0.207-1.201-0.528-1.758C199.294,142.278,196.979,141.601,195.089,142.539
	z M109.204,91.209l-22.6-39.144c0.501-0.333,0.937-0.78,1.259-1.336s0.49-1.157,0.528-1.758h48.216
	c0.084,1.299,0.794,2.532,2.005,3.231c1.211,0.699,2.634,0.697,3.801,0.12l24.109,41.756c-0.501,0.333-0.938,0.78-1.259,1.336
	c-0.321,0.556-0.49,1.158-0.528,1.758h-45.193c-0.04-1.114-0.342-2.236-0.938-3.268C116.7,90.61,112.539,89.441,109.204,91.209z
	 M170.979,94.081l24.614-42.633c0.864,0.404,1.904,0.396,2.792-0.117c0.889-0.513,1.417-1.41,1.498-2.36h49.223
	c0.079,1.219,0.712,2.376,1.79,3.094L225.773,95.58c-0.921-0.386-2.004-0.045-2.516,0.842c-0.138,0.239-0.221,0.494-0.253,0.752
	h-50.234C172.69,95.955,172.057,94.797,170.979,94.081z M311.162,52.323l23.1,40.009c-0.797,0.505-1.489,1.202-1.994,2.076
	c-0.504,0.874-0.762,1.822-0.801,2.765h-46.202c-0.038-0.6-0.207-1.201-0.528-1.758c-1.068-1.852-3.384-2.529-5.273-1.591
	l-24.109-41.76c0.501-0.333,0.937-0.78,1.258-1.336c0.321-0.556,0.49-1.158,0.528-1.758l48.216,0.001
	c0.084,1.298,0.793,2.532,2.005,3.231C308.573,52.902,309.996,52.899,311.162,52.323z M226.216,95.836L251.34,52.32
	c1.159,0.575,2.479,0.544,3.574,0.003l24.108,41.757c-1.756,1.167-2.328,3.511-1.259,5.362c0.321,0.556,0.758,1.004,1.259,1.337
	l-24.111,41.76c-1.16-0.575-2.479-0.544-3.573-0.004L226.22,99.031c0.207-0.157,0.386-0.357,0.524-0.595
	C227.256,97.548,227.009,96.44,226.216,95.836z M255.354,142.795l24.109-41.757c1.167,0.576,2.589,0.578,3.801-0.121
	c1.212-0.699,1.921-1.933,2.005-3.232h46.201c0.083,1.914,1.074,3.745,2.795,4.837l-24.116,41.772
	c-0.921-0.385-2.004-0.044-2.516,0.843c-0.138,0.239-0.221,0.494-0.253,0.752l-50.234-0.001
	C257.065,144.669,256.432,143.511,255.354,142.795z M395.537,101.036l24.109,41.756c-0.501,0.333-0.938,0.78-1.259,1.337
	c-0.322,0.556-0.49,1.158-0.528,1.758h-48.218c-0.038-0.6-0.207-1.202-0.527-1.758c-1.069-1.851-3.385-2.528-5.274-1.591
	l-23.101-40.013c0.797-0.505,1.489-1.203,1.994-2.077c0.504-0.874,0.762-1.821,0.801-2.764l46.198,0
	c0.084,1.298,0.794,2.532,2.005,3.231C392.948,101.616,394.37,101.613,395.537,101.036z M448.256,98.435
	c0.138,0.239,0.318,0.438,0.523,0.595l-25.119,43.508c-1.159-0.576-2.478-0.545-3.573-0.004l-24.109-41.756
	c0.501-0.333,0.938-0.78,1.26-1.337c1.069-1.851,0.496-4.195-1.26-5.362l24.111-41.761c1.16,0.575,2.479,0.544,3.573,0.003
	l25.122,43.512C447.991,96.44,447.744,97.548,448.256,98.435z M419.647,52.064l-24.111,41.761c-1.889-0.938-4.205-0.261-5.274,1.59
	c-0.322,0.557-0.49,1.158-0.527,1.759l-46.203,0c-0.084-1.914-1.075-3.744-2.796-4.837l23.102-40.014
	c1.167,0.577,2.59,0.579,3.802-0.12c1.212-0.7,1.921-1.933,2.005-3.232h48.213C417.935,50.189,418.568,51.347,419.647,52.064z
	 M4.019,97.174c-0.078-1.218-0.711-2.376-1.79-3.093l24.109-41.757c1.167,0.577,2.59,0.579,3.801-0.12
	c1.211-0.7,1.921-1.933,2.005-3.232h48.213c0.079,1.219,0.712,2.376,1.79,3.093L58.036,93.825c-1.889-0.938-4.204-0.261-5.273,1.59
	c-0.321,0.557-0.49,1.158-0.528,1.759L4.019,97.174z M58.479,94.081L82.59,52.32c1.16,0.575,2.479,0.544,3.573,0.004l22.598,39.141
	c-3.2,2.005-4.267,6.193-2.365,9.489c0.597,1.033,1.416,1.856,2.362,2.447L86.161,142.54c-1.16-0.576-2.479-0.545-3.573-0.004
	L58.479,100.78c0.501-0.333,0.938-0.78,1.259-1.337C60.807,97.592,60.235,95.248,58.479,94.081z M36.175,145.888
	c-0.04-1.286-0.387-2.58-1.075-3.772c-2.18-3.777-6.957-5.111-10.775-3.065L2.23,100.78c0.501-0.333,0.937-0.78,1.258-1.337
	c0.321-0.556,0.49-1.157,0.528-1.758l48.216,0.001c0.084,1.298,0.794,2.532,2.005,3.231c1.211,0.699,2.634,0.696,3.801,0.12
	l24.109,41.756c-0.501,0.333-0.937,0.78-1.258,1.336c-0.321,0.556-0.49,1.158-0.528,1.758H36.175z M88.394,145.888
	c-0.078-1.219-0.711-2.376-1.79-3.093l22.599-39.144c2.072,1.095,4.642,1.14,6.821-0.117c2.18-1.26,3.425-3.507,3.513-5.85h45.195
	c0.078,1.219,0.712,2.376,1.79,3.094l-24.614,42.632c-1.406-0.662-3.108-0.148-3.898,1.222c-0.23,0.398-0.355,0.826-0.391,1.256
	H88.394z M142.35,143.667l24.614-42.632c1.159,0.575,2.479,0.544,3.574,0.003l24.108,41.757c-1.756,1.167-2.328,3.511-1.259,5.362
	c0.321,0.556,0.758,1.004,1.259,1.337l-22.097,38.273c-2.453-1.316-5.296-1.232-7.599-0.002l-22.601-39.145
	c0.354-0.246,0.662-0.568,0.892-0.966C144.032,146.284,143.626,144.553,142.35,143.667z M4.019,194.603
	c-0.078-1.218-0.711-2.376-1.79-3.093l22.097-38.272c2.374,1.269,5.325,1.327,7.827-0.118c2.502-1.445,3.927-4.03,4.015-6.72h44.189
	c0.079,1.219,0.712,2.376,1.79,3.093l-24.111,41.761c-1.889-0.938-4.204-0.261-5.273,1.59c-0.321,0.557-0.49,1.158-0.528,1.759
	L4.019,194.603z M58.479,191.509l24.111-41.761c1.16,0.575,2.479,0.544,3.573,0.003l24.109,41.757
	c-1.756,1.167-2.328,3.511-1.259,5.362c0.321,0.556,0.758,1.003,1.259,1.337l-24.11,41.76c-1.16-0.576-2.479-0.545-3.573-0.004
	l-24.109-41.756c0.501-0.333,0.938-0.78,1.259-1.337C60.807,195.02,60.235,192.676,58.479,191.509z M30.122,243.317
	c-0.033-0.257-0.115-0.512-0.253-0.751c-0.512-0.887-1.595-1.228-2.516-0.843L2.23,198.208c0.501-0.333,0.937-0.78,1.258-1.337
	s0.49-1.157,0.528-1.758l48.216,0c0.084,1.298,0.794,2.532,2.005,3.231c1.211,0.699,2.634,0.696,3.801,0.12l24.109,41.756
	c-0.501,0.333-0.937,0.78-1.258,1.336c-0.321,0.556-0.49,1.158-0.528,1.758H30.122z M88.394,243.317
	c-0.078-1.219-0.711-2.376-1.79-3.093l24.109-41.758c1.167,0.577,2.59,0.579,3.801-0.12c1.211-0.7,1.921-1.934,2.005-3.232h44.188
	c0.086,2.61,1.435,5.113,3.801,6.581l-23.11,40.028c-0.92-0.386-2.004-0.045-2.516,0.842c-0.138,0.239-0.221,0.494-0.253,0.752
	H88.394z M141.841,241.978l23.11-40.028c2.453,1.315,5.297,1.231,7.6,0l22.096,38.272c-1.756,1.167-2.328,3.511-1.259,5.362
	c0.321,0.556,0.758,1.004,1.259,1.337l-24.11,41.76c-1.16-0.575-2.479-0.545-3.573-0.004l-25.118-43.504
	c0.207-0.157,0.387-0.357,0.524-0.595C142.881,243.691,142.634,242.583,141.841,241.978z M4.019,292.031
	c-0.078-1.218-0.711-2.376-1.79-3.093l25.123-43.514c0.559,0.233,1.215,0.22,1.78-0.107c0.565-0.327,0.905-0.887,0.983-1.488h50.242
	c0.079,1.219,0.712,2.376,1.79,3.093l-24.111,41.761c-1.889-0.938-4.204-0.261-5.273,1.59c-0.321,0.557-0.49,1.158-0.528,1.759
	L4.019,292.031z M58.479,288.938l24.111-41.761c1.16,0.575,2.479,0.544,3.573,0.004l24.109,41.757
	c-1.756,1.167-2.328,3.511-1.259,5.362c0.321,0.556,0.758,1.003,1.259,1.337l-24.11,41.76c-1.16-0.576-2.479-0.545-3.573-0.004
	l-24.109-41.756c0.501-0.333,0.938-0.78,1.259-1.337C60.807,292.448,60.235,290.104,58.479,288.938z M34.158,340.745
	c-0.039-0.943-0.296-1.891-0.801-2.765c-1.624-2.814-5.17-3.819-8.025-2.328L2.23,295.636c0.501-0.333,0.937-0.78,1.258-1.337
	s0.49-1.157,0.528-1.758l48.216,0.001c0.084,1.298,0.794,2.532,2.005,3.231c1.211,0.699,2.634,0.696,3.801,0.12l24.109,41.756
	c-0.501,0.333-0.937,0.78-1.258,1.336c-0.321,0.556-0.49,1.158-0.528,1.758H34.158z M88.394,340.745
	c-0.078-1.219-0.711-2.376-1.79-3.093l24.109-41.758c1.167,0.577,2.59,0.579,3.801-0.12c1.211-0.7,1.921-1.934,2.005-3.232h48.213
	c0.078,1.219,0.712,2.376,1.79,3.094l-25.124,43.515c-0.92-0.386-2.004-0.045-2.516,0.842c-0.138,0.239-0.221,0.494-0.253,0.752
	H88.394z M141.841,339.406l25.124-43.515c1.159,0.575,2.479,0.544,3.574,0.003l24.108,41.757c-1.756,1.167-2.328,3.511-1.259,5.362
	c0.321,0.556,0.758,1.004,1.259,1.337l-24.11,41.76c-1.16-0.575-2.479-0.545-3.573-0.004l-25.118-43.504
	c0.207-0.157,0.387-0.357,0.524-0.595C142.881,341.12,142.634,340.011,141.841,339.406z M4.019,389.459
	c-0.078-1.218-0.711-2.376-1.79-3.093l23.103-40.015c1.771,0.923,3.958,0.954,5.814-0.119c1.857-1.072,2.923-2.981,3.01-4.976
	h46.201c0.079,1.219,0.712,2.376,1.79,3.093L58.036,386.11c-1.889-0.938-4.204-0.261-5.273,1.59
	c-0.321,0.557-0.49,1.158-0.528,1.759L4.019,389.459z M58.479,386.366l24.111-41.761c1.16,0.575,2.479,0.544,3.573,0.003
	l24.109,41.757c-1.756,1.167-2.328,3.511-1.259,5.362c0.321,0.556,0.758,1.003,1.259,1.337l-24.11,41.76
	c-1.16-0.576-2.479-0.545-3.573-0.004l-24.109-41.756c0.501-0.333,0.938-0.78,1.259-1.337
	C60.807,389.877,60.235,387.533,58.479,386.366z M32.141,438.173c-0.038-0.6-0.207-1.202-0.528-1.758
	c-1.068-1.851-3.385-2.528-5.274-1.591l-24.11-41.76c0.501-0.333,0.937-0.78,1.258-1.337s0.49-1.157,0.528-1.758l48.216,0
	c0.084,1.298,0.794,2.532,2.005,3.232c1.211,0.699,2.634,0.696,3.801,0.12l24.109,41.756c-0.501,0.333-0.937,0.78-1.258,1.336
	c-0.321,0.556-0.49,1.158-0.528,1.758H32.141z M88.394,438.173c-0.078-1.219-0.711-2.376-1.79-3.093l24.109-41.758
	c1.167,0.577,2.59,0.579,3.801-0.12c1.211-0.7,1.921-1.934,2.005-3.232h48.213c0.078,1.219,0.712,2.376,1.79,3.094l-22.6,39.144
	c-3.336-1.769-7.497-0.599-9.4,2.696c-0.597,1.033-0.899,2.155-0.938,3.269H88.394z M144.364,432.464l22.6-39.144
	c1.159,0.575,2.479,0.544,3.574,0.003l24.612,42.629c-1.276,0.886-1.681,2.617-0.891,3.987c0.23,0.398,0.538,0.721,0.891,0.966
	l-24.615,42.634c-1.16-0.575-2.479-0.545-3.573-0.004l-22.596-39.136c0.946-0.591,1.766-1.413,2.362-2.446
	C148.632,438.657,147.564,434.467,144.364,432.464z M4.019,486.888c-0.078-1.218-0.711-2.376-1.79-3.093l24.109-41.757
	c1.167,0.577,2.59,0.579,3.801-0.12c1.211-0.7,1.921-1.933,2.005-3.232h48.213c0.079,1.219,0.712,2.376,1.79,3.093l-25.124,43.515
	c-0.921-0.385-2.004-0.044-2.516,0.843c-0.138,0.239-0.221,0.494-0.254,0.752L4.019,486.888z M57.466,485.549l25.124-43.515
	c1.16,0.575,2.479,0.544,3.573,0.004l24.109,41.757c-1.756,1.167-2.328,3.511-1.259,5.362c0.321,0.556,0.758,1.003,1.259,1.337
	l-24.614,42.632c-0.835-0.393-1.774-0.371-2.565-0.001L57.47,488.745c0.207-0.157,0.387-0.357,0.524-0.595
	C58.506,487.263,58.26,486.154,57.466,485.549z M32.141,535.602c-0.038-0.6-0.207-1.202-0.528-1.758
	c-1.068-1.851-3.385-2.528-5.274-1.591l-24.11-41.76c0.501-0.333,0.937-0.78,1.258-1.337s0.49-1.157,0.528-1.758l50.245,0
	c0.078,0.6,0.417,1.161,0.982,1.487c0.565,0.326,1.22,0.34,1.779,0.107l25.627,44.387c-0.353,0.246-0.661,0.568-0.891,0.966
	c-0.229,0.398-0.355,0.826-0.391,1.255H32.141z M87.383,535.602c-0.075-0.87-0.525-1.694-1.283-2.221l24.612-42.63
	c1.167,0.577,2.59,0.579,3.801-0.12c1.211-0.7,1.921-1.934,2.005-3.232h48.213c0.078,1.219,0.712,2.376,1.79,3.094l-24.111,41.76
	c-1.889-0.938-4.205-0.261-5.274,1.59c-0.321,0.557-0.49,1.158-0.528,1.759H87.383z M142.854,532.508l24.111-41.76
	c1.159,0.575,2.479,0.544,3.574,0.003l23.102,40.013c-2.719,1.725-3.622,5.299-1.997,8.113c0.505,0.875,1.197,1.572,1.994,2.077
	l-23.101,40.013c-1.16-0.576-2.479-0.545-3.573-0.004l-24.109-41.756c0.501-0.333,0.938-0.78,1.259-1.337
	C145.182,536.019,144.61,533.675,142.854,532.508z M4.019,584.316c-0.078-1.218-0.711-2.376-1.79-3.093l24.109-41.757
	c1.167,0.577,2.59,0.579,3.801-0.12c1.211-0.7,1.921-1.933,2.005-3.232h49.224c0.075,0.87,0.525,1.694,1.283,2.221l-24.614,42.632
	c-1.889-0.937-4.204-0.26-5.273,1.591c-0.321,0.557-0.49,1.158-0.528,1.759L4.019,584.316z M58.479,581.223l24.614-42.633
	c0.835,0.393,1.774,0.371,2.565,0.001l24.614,42.632c-1.756,1.167-2.328,3.511-1.259,5.362c0.321,0.556,0.758,1.003,1.259,1.337
	l-22.096,38.272c-2.453-1.315-5.297-1.232-7.599-0.001l-22.096-38.271c0.501-0.333,0.938-0.78,1.259-1.337
	C60.807,584.733,60.235,582.39,58.479,581.223z M30.122,633.03c-0.033-0.257-0.115-0.512-0.253-0.751
	c-0.512-0.887-1.595-1.228-2.516-0.843L2.23,587.922c0.501-0.333,0.937-0.78,1.258-1.337s0.49-1.157,0.528-1.758l48.216,0
	c0.084,1.298,0.794,2.532,2.005,3.232c1.211,0.699,2.634,0.697,3.801,0.12l22.091,38.262c-1.093,0.677-2.04,1.625-2.728,2.816
	c-0.688,1.192-1.035,2.486-1.075,3.772H30.122z M92.418,633.03c-0.085-2.609-1.435-5.113-3.801-6.581l22.095-38.27
	c1.167,0.576,2.59,0.579,3.801-0.12c1.211-0.7,1.921-1.934,2.005-3.232h48.213c0.078,1.219,0.712,2.376,1.79,3.093l-24.111,41.761
	c-1.889-0.938-4.205-0.261-5.274,1.59c-0.321,0.557-0.49,1.158-0.528,1.759H92.418z M142.854,629.936l24.111-41.76
	c1.159,0.575,2.479,0.544,3.574,0.003l25.122,43.512c-0.794,0.604-1.041,1.713-0.529,2.6c0.138,0.239,0.318,0.438,0.524,0.595
	l-25.119,43.508c-1.16-0.576-2.479-0.545-3.573-0.004l-24.109-41.756c0.501-0.333,0.938-0.78,1.259-1.337
	C145.182,633.448,144.61,631.103,142.854,629.936z M58.036,678.395c-1.889-0.937-4.204-0.26-5.273,1.591
	c-0.321,0.557-0.49,1.158-0.528,1.759l-48.216-0.001c-0.078-1.218-0.711-2.376-1.79-3.093l25.123-43.514
	c0.559,0.233,1.215,0.22,1.78-0.107c0.565-0.327,0.905-0.887,0.983-1.488h46.218c0.085,2.609,1.435,5.114,3.8,6.581L58.036,678.395z
	 M116.516,681.744c-0.038-0.6-0.207-1.202-0.528-1.758c-1.069-1.851-3.385-2.528-5.273-1.59l-22.093-38.266
	c1.093-0.677,2.041-1.625,2.729-2.817c0.688-1.192,1.035-2.486,1.075-3.771h44.181c0.084,1.299,0.794,2.532,2.005,3.231
	c1.211,0.699,2.634,0.697,3.801,0.12l24.109,41.756c-0.501,0.333-0.938,0.78-1.259,1.336c-0.321,0.556-0.49,1.158-0.528,1.758
	H116.516z M226.786,678.394c-1.889-0.938-4.205-0.261-5.274,1.591c-0.321,0.556-0.49,1.158-0.528,1.759h-48.216
	c-0.079-1.219-0.712-2.376-1.79-3.093l25.124-43.515c0.559,0.233,1.214,0.219,1.779-0.107c0.566-0.327,0.905-0.887,0.983-1.488
	h50.241c0.079,1.219,0.712,2.377,1.79,3.094L226.786,678.394z M289.301,681.743c-0.04-1.285-0.387-2.579-1.075-3.771
	c-2.18-3.778-6.957-5.112-10.775-3.065l-22.096-38.273c0.501-0.333,0.937-0.78,1.258-1.336s0.49-1.158,0.528-1.758l50.245,0
	c0.078,0.601,0.417,1.161,0.983,1.488c0.565,0.326,1.22,0.34,1.78,0.107l25.123,43.513c-0.501,0.333-0.937,0.78-1.259,1.336
	c-0.322,0.556-0.49,1.158-0.528,1.758H289.301z M394.522,680.149c-0.92-0.385-2.004-0.044-2.516,0.843
	c-0.138,0.239-0.221,0.495-0.254,0.752l-50.234,0c-0.078-1.218-0.711-2.376-1.79-3.093l24.109-41.757
	c1.167,0.577,2.59,0.579,3.802-0.12c1.212-0.7,1.921-1.933,2.005-3.232h48.213c0.078,1.219,0.711,2.376,1.79,3.093L394.522,680.149z
	 M454.015,681.743c-0.037-0.6-0.206-1.202-0.527-1.758c-1.069-1.851-3.384-2.528-5.273-1.591l-24.111-41.76
	c0.501-0.333,0.938-0.78,1.259-1.336c0.322-0.556,0.49-1.157,0.528-1.758h48.215c0.084,1.299,0.794,2.532,2.006,3.232
	c1.211,0.699,2.634,0.697,3.801,0.12l23.1,40.009c-0.797,0.505-1.489,1.202-1.994,2.076c-0.504,0.874-0.762,1.822-0.802,2.765
	H454.015z M638.832,633.54c0.089,2.69,1.514,5.274,4.017,6.719c2.502,1.445,5.453,1.386,7.826,0.118l22.096,38.271
	c-0.501,0.333-0.938,0.78-1.259,1.336c-0.322,0.556-0.49,1.158-0.528,1.758h-48.218c-0.038-0.6-0.207-1.201-0.527-1.758
	c-1.069-1.852-3.385-2.529-5.274-1.591l-24.11-41.76c0.501-0.333,0.937-0.78,1.259-1.336c0.321-0.556,0.49-1.158,0.527-1.758
	L638.832,633.54z M586.606,633.54c0.079,1.219,0.711,2.377,1.79,3.094l-24.111,41.76c-1.889-0.938-4.204-0.261-5.273,1.591
	c-0.322,0.556-0.49,1.158-0.527,1.759H512.28c-0.083-1.914-1.074-3.744-2.795-4.836l23.103-40.014c1.166,0.576,2.589,0.579,3.8-0.12
	c1.213-0.7,1.922-1.934,2.006-3.232H586.606z M530.887,635.298c0.322,0.556,0.758,1.004,1.26,1.337l-23.104,40.017
	c-1.807-0.944-3.888-0.887-5.587-0.003l-23.102-40.014c0.5-0.333,0.937-0.78,1.259-1.337c1.069-1.851,0.496-4.195-1.259-5.362
	l25.124-43.515c0.508,0.212,1.062,0.203,1.545,0.001l25.123,43.514C530.39,631.102,529.818,633.447,530.887,635.298z
	 M670.981,584.825c0.078,1.219,0.711,2.377,1.79,3.093l-22.097,38.272c-3.818-2.046-8.595-0.712-10.775,3.066
	c-0.688,1.192-1.036,2.486-1.075,3.772l-44.182,0c-0.079-1.218-0.711-2.376-1.79-3.093l25.123-43.515
	c0.559,0.233,1.215,0.219,1.78-0.107c0.565-0.326,0.905-0.887,0.983-1.488H670.981z M617.006,585.576
	c0.138,0.239,0.318,0.438,0.524,0.595l-25.12,43.508c-1.16-0.575-2.479-0.544-3.573-0.004l-24.109-41.756
	c0.501-0.333,0.938-0.78,1.259-1.336c1.069-1.851,0.497-4.195-1.259-5.362l22.599-39.144c2.131,1.129,4.593,1.059,6.594,0.001
	l23.612,40.898C616.74,583.581,616.493,584.689,617.006,585.576z M642.856,536.112c0.084,1.298,0.793,2.532,2.005,3.232
	c1.212,0.7,2.635,0.697,3.801,0.12l24.109,41.756c-0.501,0.333-0.938,0.78-1.259,1.336c-0.322,0.556-0.49,1.158-0.528,1.758h-50.237
	c-0.032-0.257-0.115-0.512-0.253-0.751c-0.512-0.888-1.595-1.228-2.516-0.843l-23.61-40.894c0.945-0.591,1.765-1.414,2.361-2.447
	c0.596-1.033,0.898-2.154,0.938-3.268L642.856,536.112z M583.588,536.111c0.084,2.262,1.254,4.429,3.297,5.71l-22.6,39.144
	c-1.889-0.937-4.204-0.261-5.273,1.591c-0.322,0.556-0.49,1.158-0.527,1.759H508.24c-0.068-0.52-0.337-1.004-0.774-1.338
	l25.122-43.513c1.166,0.576,2.589,0.579,3.8-0.12c1.213-0.7,1.922-1.934,2.006-3.232H583.588z M530.887,537.869
	c0.322,0.556,0.758,1.004,1.26,1.337l-25.123,43.515c-0.508-0.213-1.062-0.204-1.546-0.002l-25.122-43.513
	c0.5-0.333,0.937-0.78,1.259-1.337c1.069-1.851,0.496-4.195-1.259-5.362l24.614-42.632c0.835,0.393,1.773,0.371,2.564,0
	l24.614,42.632C530.39,533.674,529.818,536.018,530.887,537.869z M670.981,487.397c0.078,1.219,0.711,2.377,1.79,3.093
	l-24.111,41.761c-1.889-0.937-4.205-0.261-5.274,1.591c-0.322,0.556-0.49,1.158-0.527,1.759l-45.198,0
	c-0.085-2.262-1.256-4.429-3.298-5.708l22.599-39.143c1.167,0.577,2.589,0.579,3.801-0.12c1.212-0.699,1.921-1.933,2.005-3.232
	H670.981z M615.261,489.155c0.322,0.556,0.758,1.003,1.26,1.337l-22.601,39.145c-2.13-1.13-4.591-1.06-6.592-0.003l-22.599-39.143
	c0.501-0.333,0.938-0.78,1.259-1.337c1.069-1.851,0.497-4.195-1.259-5.362l25.123-43.515c0.508,0.212,1.062,0.203,1.546,0.001
	l25.122,43.514C614.765,484.96,614.194,487.304,615.261,489.155z M642.856,438.683c0.084,1.298,0.793,2.532,2.005,3.231
	c1.212,0.7,2.635,0.697,3.801,0.12l24.109,41.756c-0.501,0.333-0.938,0.78-1.259,1.336c-0.322,0.556-0.49,1.158-0.528,1.758h-48.218
	c-0.038-0.6-0.207-1.201-0.527-1.758c-1.069-1.852-3.385-2.529-5.274-1.591l-25.118-43.508c0.206-0.157,0.386-0.356,0.523-0.595
	s0.221-0.494,0.254-0.751L642.856,438.683z M588.635,438.683c0.068,0.52,0.337,1.004,0.774,1.339l-25.123,43.515
	c-1.889-0.937-4.204-0.261-5.273,1.591c-0.322,0.556-0.49,1.158-0.527,1.759h-49.227c-0.075-0.87-0.524-1.694-1.283-2.221
	l24.613-42.63c1.166,0.577,2.589,0.579,3.8-0.12c1.213-0.7,1.922-1.934,2.006-3.232H588.635z M530.887,440.441
	c0.322,0.556,0.758,1.004,1.26,1.337l-24.614,42.632c-0.835-0.394-1.774-0.372-2.565-0.001l-25.117-43.505
	c0.353-0.246,0.661-0.568,0.891-0.966c0.79-1.369,0.385-3.1-0.89-3.987l25.627-44.387c0.508,0.212,1.062,0.203,1.545,0.001
	l25.123,43.514C530.39,436.245,529.818,438.59,530.887,440.441z M670.981,389.969c0.078,1.219,0.711,2.377,1.79,3.093
	l-24.111,41.761c-1.889-0.937-4.205-0.261-5.274,1.591c-0.322,0.556-0.49,1.158-0.527,1.759l-50.245,0
	c-0.067-0.52-0.337-1.004-0.774-1.338l25.122-43.513c1.167,0.577,2.589,0.579,3.801-0.12s1.921-1.933,2.005-3.232H670.981z
	 M615.261,391.726c0.322,0.556,0.758,1.003,1.26,1.337l-25.124,43.515c-0.507-0.213-1.061-0.204-1.545-0.002l-23.105-40.019
	c1.093-0.677,2.041-1.625,2.729-2.817c2.181-3.777,0.948-8.581-2.733-10.863l22.097-38.273c1.16,0.575,2.478,0.544,3.573,0.003
	l24.109,41.757C614.765,387.531,614.194,389.875,615.261,391.726z M642.856,341.255c0.084,1.298,0.793,2.532,2.005,3.231
	c1.212,0.7,2.635,0.697,3.801,0.12l24.109,41.756c-0.501,0.333-0.938,0.78-1.259,1.336c-0.322,0.556-0.49,1.158-0.528,1.758h-48.218
	c-0.038-0.6-0.207-1.201-0.527-1.758c-1.069-1.852-3.385-2.529-5.274-1.591l-24.11-41.76c0.501-0.333,0.937-0.78,1.259-1.336
	c0.321-0.556,0.49-1.158,0.527-1.758L642.856,341.255z M586.606,341.254c0.079,1.219,0.711,2.376,1.79,3.094l-22.097,38.273
	c-3.818-2.047-8.594-0.714-10.774,3.064c-0.688,1.192-1.036,2.487-1.076,3.772H508.24c-0.068-0.52-0.337-1.004-0.774-1.338
	l25.122-43.513c1.166,0.577,2.589,0.579,3.8-0.12c1.213-0.7,1.922-1.934,2.006-3.232H586.606z M530.887,343.013
	c0.322,0.556,0.758,1.004,1.26,1.337l-25.123,43.515c-0.508-0.213-1.062-0.204-1.546-0.002l-25.122-43.513
	c0.5-0.333,0.937-0.78,1.259-1.337c1.069-1.851,0.496-4.195-1.259-5.362l24.111-41.76c1.159,0.575,2.478,0.544,3.573,0.003
	l24.109,41.757C530.39,338.817,529.818,341.162,530.887,343.013z M670.981,292.54c0.078,1.219,0.711,2.377,1.79,3.093
	l-24.111,41.761c-1.889-0.937-4.205-0.261-5.274,1.591c-0.322,0.556-0.49,1.158-0.527,1.759l-48.216,0
	c-0.079-1.218-0.711-2.376-1.79-3.093l23.104-40.015c1.77,0.922,3.957,0.953,5.814-0.119c1.857-1.072,2.923-2.981,3.01-4.976
	H670.981z M613.517,295.304c0.505,0.875,1.198,1.572,1.995,2.077l-23.102,40.013c-1.16-0.575-2.479-0.544-3.573-0.004
	l-24.109-41.756c0.501-0.333,0.938-0.78,1.259-1.337c1.069-1.851,0.497-4.195-1.259-5.362l25.123-43.515
	c0.508,0.212,1.062,0.203,1.546,0.001l24.116,41.771C612.795,288.917,611.893,292.49,613.517,295.304z M644.885,243.827
	c0.078,0.601,0.418,1.161,0.983,1.488c0.565,0.326,1.221,0.34,1.78,0.107l25.122,43.513c-0.501,0.333-0.938,0.78-1.259,1.336
	c-0.322,0.556-0.49,1.158-0.528,1.758h-46.201c-0.039-0.943-0.296-1.89-0.8-2.764c-1.625-2.815-5.172-3.82-8.025-2.328
	l-24.112-41.764c0.206-0.157,0.386-0.356,0.523-0.595s0.221-0.494,0.254-0.751L644.885,243.827z M588.635,243.826
	c0.068,0.52,0.337,1.004,0.774,1.339l-25.123,43.515c-1.889-0.938-4.204-0.261-5.273,1.591c-0.322,0.556-0.49,1.158-0.527,1.759
	h-48.216c-0.079-1.219-0.711-2.376-1.79-3.093l24.11-41.758c1.166,0.577,2.589,0.579,3.8-0.12c1.213-0.7,1.922-1.934,2.006-3.232
	H588.635z M530.887,245.584c0.322,0.556,0.758,1.004,1.26,1.337l-24.111,41.76c-1.16-0.576-2.479-0.545-3.573-0.004l-24.109-41.756
	c0.5-0.333,0.937-0.78,1.259-1.337c1.069-1.851,0.496-4.195-1.259-5.362l24.111-41.76c1.159,0.575,2.478,0.544,3.573,0.003
	l24.109,41.757C530.39,241.389,529.818,243.733,530.887,245.584z M670.981,195.112c0.078,1.219,0.711,2.377,1.79,3.093
	l-25.124,43.516c-0.92-0.385-2.004-0.044-2.516,0.843c-0.138,0.239-0.221,0.494-0.254,0.752l-52.263-0.001
	c-0.067-0.52-0.337-1.004-0.774-1.338l25.627-44.388c0.864,0.405,1.904,0.396,2.793-0.117c0.889-0.513,1.416-1.409,1.497-2.36
	H670.981z M616.133,196.366c0.23,0.398,0.538,0.721,0.892,0.966l-25.629,44.389c-0.507-0.213-1.061-0.204-1.545-0.002
	l-25.122-43.513c0.501-0.333,0.938-0.78,1.259-1.337c1.069-1.851,0.497-4.195-1.259-5.362l23.104-40.017
	c1.806,0.944,3.887,0.888,5.586,0.003l23.606,40.886C615.749,193.266,615.343,194.997,616.133,196.366z M642.856,146.398
	c0.084,1.298,0.793,2.532,2.005,3.231c1.212,0.7,2.635,0.697,3.801,0.12l24.109,41.756c-0.501,0.333-0.938,0.78-1.259,1.336
	c-0.322,0.556-0.49,1.158-0.528,1.758h-49.227c-0.036-0.429-0.162-0.857-0.391-1.254c-0.791-1.37-2.492-1.884-3.899-1.223
	l-23.604-40.884c0.797-0.505,1.489-1.203,1.994-2.077c0.504-0.874,0.762-1.822,0.801-2.765L642.856,146.398z M584.594,146.398
	c0.083,1.914,1.074,3.745,2.795,4.837l-23.104,40.017c-1.889-0.937-4.204-0.261-5.273,1.591c-0.322,0.556-0.49,1.158-0.527,1.759
	h-48.216c-0.079-1.219-0.711-2.376-1.79-3.093l25.123-43.515c0.559,0.233,1.215,0.219,1.78-0.107
	c0.565-0.327,0.905-0.887,0.982-1.488H584.594z M532.631,147.149c0.138,0.239,0.318,0.439,0.524,0.595l-25.119,43.508
	c-1.16-0.576-2.479-0.545-3.573-0.004l-24.109-41.756c0.5-0.333,0.937-0.78,1.259-1.337c1.069-1.851,0.496-4.195-1.259-5.362
	l24.111-41.76c1.159,0.575,2.478,0.544,3.573,0.003l25.122,43.512C532.365,145.153,532.119,146.262,532.631,147.149z
	 M670.981,97.684c0.078,1.219,0.711,2.377,1.79,3.093l-24.111,41.761c-1.889-0.937-4.205-0.261-5.274,1.591
	c-0.322,0.556-0.49,1.158-0.527,1.759l-46.203-0.001c-0.084-1.914-1.075-3.744-2.796-4.836l23.103-40.014
	c1.167,0.577,2.589,0.579,3.801-0.12c1.212-0.699,1.921-1.933,2.005-3.232H670.981z M615.261,99.441
	c0.322,0.556,0.758,1.003,1.26,1.337l-23.104,40.017c-1.807-0.944-3.888-0.888-5.586-0.003l-23.103-40.014
	c0.501-0.333,0.938-0.78,1.259-1.337c1.069-1.851,0.497-4.195-1.259-5.362l22.599-39.144c2.131,1.129,4.593,1.059,6.594,0.001
	l22.599,39.143C614.765,95.246,614.194,97.59,615.261,99.441z M642.856,48.97c0.084,1.298,0.793,2.532,2.005,3.231
	c1.212,0.7,2.635,0.697,3.801,0.12l24.109,41.756c-0.501,0.333-0.938,0.78-1.259,1.336c-0.322,0.556-0.49,1.158-0.528,1.758h-48.218
	c-0.038-0.6-0.207-1.201-0.527-1.758c-1.069-1.852-3.385-2.529-5.274-1.591l-22.596-39.139c0.945-0.591,1.765-1.413,2.361-2.446
	s0.898-2.154,0.938-3.268L642.856,48.97z M583.588,48.969c0.084,2.262,1.255,4.429,3.297,5.71l-22.6,39.144
	c-1.889-0.937-4.204-0.261-5.273,1.591c-0.322,0.556-0.49,1.158-0.527,1.759h-48.216c-0.079-1.219-0.711-2.376-1.79-3.093
	l24.614-42.633c0.864,0.404,1.904,0.396,2.793-0.117c0.889-0.513,1.417-1.41,1.497-2.36H583.588z M531.759,50.224
	c0.23,0.398,0.537,0.721,0.891,0.966l-24.614,42.634c-1.16-0.576-2.479-0.545-3.573-0.004l-24.109-41.756
	c0.5-0.333,0.937-0.78,1.259-1.337c1.069-1.851,0.496-4.195-1.259-5.362l23.104-40.017c1.806,0.944,3.887,0.888,5.586,0.002
	l23.606,40.887C531.374,47.123,530.968,48.855,531.759,50.224z M616.963,3.608c1.167,0.577,2.589,0.579,3.801-0.12
	s1.921-1.933,2.005-3.232h48.213c0.078,1.219,0.711,2.377,1.79,3.093l-24.111,41.761c-1.889-0.937-4.205-0.261-5.274,1.591
	c-0.322,0.556-0.49,1.158-0.527,1.759l-45.198-0.001c-0.085-2.262-1.256-4.429-3.298-5.708L616.963,3.608z M558.482,0.256
	c0.084,1.299,0.793,2.532,2.005,3.231s2.634,0.697,3.801,0.12l22.595,39.136c-0.945,0.591-1.765,1.413-2.361,2.446
	c-0.596,1.033-0.899,2.154-0.938,3.268h-46.201c-0.036-0.429-0.162-0.857-0.392-1.255c-0.79-1.37-2.491-1.884-3.898-1.222
	L509.488,5.097c0.797-0.505,1.488-1.202,1.993-2.076c0.505-0.874,0.762-1.822,0.802-2.765H558.482z M448.212,3.609
	c1.167,0.577,2.59,0.579,3.801-0.12c1.212-0.7,1.921-1.934,2.005-3.233h46.201c0.083,1.914,1.074,3.744,2.795,4.837L479.911,45.11
	c-1.889-0.938-4.204-0.261-5.273,1.59c-0.322,0.557-0.49,1.158-0.528,1.759h-48.215c-0.079-1.219-0.712-2.376-1.79-3.093
	L448.212,3.609z M391.76,0.257c0.078,0.6,0.418,1.161,0.983,1.487c0.565,0.326,1.22,0.34,1.779,0.107l25.123,43.513
	c-0.501,0.333-0.938,0.78-1.259,1.336c-0.322,0.556-0.49,1.158-0.528,1.758h-48.218c-0.038-0.6-0.207-1.202-0.527-1.758
	c-1.069-1.851-3.385-2.528-5.274-1.591l-24.11-41.76c0.501-0.333,0.937-0.78,1.259-1.337c0.321-0.556,0.489-1.157,0.527-1.758
	L391.76,0.257z M277.451,7.094c2.373,1.269,5.324,1.327,7.826-0.118c2.503-1.444,3.928-4.03,4.016-6.72h44.188
	c0.078,1.219,0.712,2.377,1.79,3.093l-24.11,41.761c-1.889-0.937-4.205-0.261-5.273,1.591c-0.321,0.556-0.49,1.158-0.528,1.759
	l-48.216-0.001c-0.079-1.218-0.711-2.376-1.79-3.093L277.451,7.094z M220.981,0.257c0.084,1.299,0.794,2.532,2.005,3.231
	c1.211,0.699,2.634,0.697,3.801,0.12l24.109,41.756c-0.501,0.333-0.937,0.78-1.259,1.336c-0.321,0.556-0.49,1.158-0.528,1.758
	h-49.227c-0.036-0.429-0.162-0.857-0.391-1.254c-0.791-1.37-2.492-1.884-3.898-1.222L170.98,3.351
	c0.501-0.333,0.937-0.78,1.258-1.336s0.49-1.158,0.528-1.758H220.981z M110.712,3.61c1.167,0.577,2.59,0.579,3.801-0.12
	c1.211-0.7,1.921-1.934,2.005-3.232h48.213c0.078,1.219,0.712,2.376,1.79,3.094l-24.111,41.76c-1.889-0.938-4.205-0.261-5.274,1.59
	c-0.321,0.557-0.49,1.158-0.528,1.759H88.394c-0.078-1.219-0.711-2.376-1.79-3.093L110.712,3.61z M58.037,3.61l24.109,41.756
	c-0.501,0.333-0.937,0.78-1.258,1.336c-0.321,0.556-0.49,1.158-0.528,1.758H32.141c-0.038-0.6-0.207-1.202-0.528-1.758
	c-1.068-1.851-3.385-2.528-5.274-1.591L2.23,3.351c0.501-0.333,0.937-0.78,1.258-1.337s0.49-1.157,0.528-1.758l48.216,0
	c0.084,1.298,0.794,2.532,2.005,3.231C55.448,4.188,56.871,4.185,58.037,3.61z" fill="#fa4955"></path>
</g></pattern></defs><rect width="100%" height="100%" id="RctSolidBackground1" fill="url(#pattern-526-layer-1)"></rect></svg>