<svg xmlns="http://www.w3.org/2000/svg" version="1.1" xmlns:xlink="http://www.w3.org/1999/xlink" xmlns:svgjs="http://svgjs.com/svgjs" id="svg-pattern-501" width="100%" height="100%"><defs><pattern x="0" y="0" width="166" height="189" patternUnits="userSpaceOnUse" id="pattern-501-layer-1"><g id="PatternRootContent1" transform="scale(1)"><rect class="fill0" width="166" height="189" fill="#dfdfdf"></rect>
<g class="fill1" fill="#ff8600">
	<path d="M166,187.382v-3.78c-0.332,0.278-0.658,0.573-0.969,0.903C162.201,187.51,163.167,187.923,166,187.382z"></path>
	<path d="M147.843,153.536c0.064-2.699-0.101-16.022-9.437-19.12c-10.25-3.401,6.498,9.253,9.303,19.158
		c-0.983,3.159-3.026,7.3-5.46,11.63c0.031-3.364-0.473-15.778-9.443-18.755c-10.215-3.389,6.383,9.166,9.274,19.056
		c-2.024,3.582-4.304,7.278-6.464,10.644c0.563-3.263,2.088-15.67-6.321-20.056c-9.566-4.989,4.909,10.141,6.121,20.367
		c-1.422,2.209-2.786,4.267-3.984,6.045c0.561-3.237,2.105-15.679-6.318-20.072c-9.565-4.989,4.907,10.139,6.121,20.365
		c-1.799,2.663-3.196,4.657-3.813,5.531c-0.318,0.007-0.782,0.214-1.433,0.669h1.349h0.481h0.156
		c-0.005-0.069-0.019-0.124-0.031-0.183c0.57-0.831,2.022-2.965,3.938-5.895c8.961-5.108,29.418-2.863,19.712-7.4
		c-7.892-3.689-16.071,3.391-19.094,6.452c1.037-1.596,2.179-3.381,3.361-5.274c8.851-5.261,29.694-2.946,19.914-7.518
		c-8.313-3.886-16.942,4.175-19.532,6.904c1.995-3.21,4.084-6.702,5.966-10.101c0.005,0.022,0.011,0.044,0.017,0.066
		c0,0,0.002-0.036,0.005-0.105c0.035-0.063,0.07-0.126,0.105-0.189c7.819-6.682,28.986-7.722,18.558-10.686
		c-8.622-2.451-15.722,6.401-18.023,9.709c2.26-4.17,4.147-8.13,5.091-11.178c4.461-4.011,13.412-6.289,18.039-8.004v-3.24v-0.014
		v-0.868c-0.302,0.256-0.574,0.486-0.831,0.701C156.002,140.67,149.133,151.366,147.843,153.536z"></path>
	<path d="M103.455,183.925c-3.017-9.844,4.178-29.554-2.584-21.135c-6.192,7.709,1.006,19.065,2.475,21.214
		c-2.421-1.196-14.572-6.661-21.316,0.501c-7.404,7.862,11.129-1.993,21.294-0.363c1.369,1.242,2.879,2.922,4.448,4.858h0.365
		C106.479,186.975,104.887,185.22,103.455,183.925z"></path>
	<path d="M110.237,172.816c-4.224,4.895-2.781,11.549-0.888,16.184h2.151
		C111.449,178.841,116.226,165.875,110.237,172.816z"></path>
	<path d="M120.878,183.404c-1.87,1.57-2.977,3.518-3.576,5.596h5.041C124.193,183.25,125.397,179.609,120.878,183.404z"></path>
	<path d="M143.928,189h3.575c-0.181-0.136-0.362-0.272-0.555-0.399C143.996,186.653,143.4,187.129,143.928,189z"></path>
	<path d="M20.455,183.925c-3.017-9.844,4.178-29.554-2.584-21.135c-6.192,7.709,1.006,19.065,2.475,21.214
		c-2.309-1.141-13.468-6.157-20.346-0.403v3.78c4.579-0.875,14.045-4.247,20.325-3.24c1.369,1.242,2.879,2.922,4.448,4.858h0.365
		C23.479,186.975,21.887,185.22,20.455,183.925z"></path>
	<path d="M37.878,183.404c-1.87,1.57-2.977,3.518-3.576,5.596h5.041C41.193,183.25,42.397,179.609,37.878,183.404z"></path>
	<path d="M27.237,172.816c-4.224,4.895-2.781,11.549-0.888,16.184h2.151C28.449,178.841,33.226,165.875,27.237,172.816z
		"></path>
	<path d="M60.928,189h3.575c-0.181-0.136-0.362-0.272-0.555-0.399C60.996,186.653,60.4,187.129,60.928,189z"></path>
	<path d="M166,73.044v-5.413C161.763,65.595,163.311,68.438,166,73.044z"></path>
	<path d="M164.169,115.403c-1.011-1.613-2.148-3.401-3.366-5.271c-1.04-10.243,9.842-28.17,1.575-21.228
		c-7.027,5.901-3.353,17.124-1.971,20.623c-2.07-3.162-4.356-6.528-6.646-9.667c0.022,0.004,0.044,0.008,0.066,0.012
		c0,0-0.032-0.017-0.093-0.049c-0.043-0.058-0.085-0.117-0.128-0.175c-2.764-9.907,5.213-29.54-1.87-21.332
		c-5.856,6.786-0.821,16.955,1.209,20.436c-2.828-3.807-5.625-7.188-7.991-9.327c-3.017-9.844,4.178-29.554-2.584-21.135
		c-6.192,7.709,1.006,19.065,2.475,21.214c-2.421-1.196-14.572-6.661-21.316,0.501c-7.404,7.862,11.129-1.993,21.294-0.363
		c2.45,2.223,5.345,5.82,8.246,9.852c-3.037-1.446-14.508-6.22-20.988,0.66c-7.378,7.835,11.002-1.926,21.189-0.379
		c2.395,3.345,4.787,6.971,6.928,10.348c-2.722-1.886-13.33-8.497-20.852-2.72c-8.556,6.572,11.265-0.177,21.05,3.032
		c1.404,2.22,2.696,4.325,3.803,6.161c-2.699-1.873-13.331-8.517-20.866-2.729c-8.555,6.572,11.263-0.176,21.048,3.032
		c0.389,0.647,0.743,1.241,1.081,1.808c0.133,0.659,0.315,1.411,0.535,2.249v-1.347v-1.255v-2.288
		c-0.568-0.139-0.774,0.272-0.749,1.073c-0.158-0.255-0.316-0.51-0.482-0.777c-0.231-2.778,0.38-6.09,1.231-9.31V95.721
		C159.836,101.396,162.698,111.452,164.169,115.403z"></path>
	<path d="M3.457,94.298c0.591-0.862,2.039-2.992,3.925-5.876c8.961-5.108,29.418-2.863,19.712-7.4
		C19.202,77.333,11.023,84.413,8,87.474c1.037-1.596,2.179-3.381,3.361-5.274c8.851-5.261,29.694-2.946,19.914-7.518
		c-8.313-3.886-16.942,4.175-19.532,6.904c1.995-3.21,4.084-6.702,5.966-10.101c0.005,0.022,0.011,0.044,0.017,0.066
		c0,0,0.002-0.036,0.005-0.105c0.035-0.063,0.07-0.126,0.105-0.189c7.819-6.682,28.986-7.722,18.558-10.686
		c-8.622-2.451-15.722,6.401-18.023,9.709c2.26-4.17,4.147-8.13,5.091-11.178c7.656-6.884,28.562-8.666,18.078-11.25
		c-0.009-0.002-0.017-0.003-0.026-0.005c0.945-0.822,2.139-1.869,3.523-3.104c9.981-2.603,29.151,4.884,20.958-2.02
		c-6.661-5.615-16.4-0.904-20.115,1.265c1.416-1.272,2.983-2.698,4.617-4.218c9.914-2.778,29.439,4.876,21.184-2.082
		c-7.017-5.914-17.445-0.373-20.656,1.588c2.761-2.581,5.686-5.409,8.387-8.202c-0.001,0.023,0,0.045-0.001,0.067
		c0,0,0.012-0.034,0.033-0.1c0.05-0.052,0.1-0.104,0.15-0.156c9.287-4.419,29.996,0.08,20.697-5.493
		c-7.688-4.608-16.845,2.093-19.928,4.688c3.266-3.438,6.119-6.772,7.822-9.469c9.182-4.657,29.833-0.942,20.381-6.163
		c-8.655-4.781-18.611,4.254-20.478,6.069C68.835,17.988,71.997,5.626,64.503,0h-3.575c1.084,3.842,6.932,13.596,7.022,20.519
		c-1.771,2.794-4.82,6.262-8.296,9.81c0.904-3.24,3.646-15.358-4.242-20.565c-8.982-5.928,3.78,10.51,4,20.812
		c-2.886,2.932-6.049,5.909-9.01,8.597c1.393-3.005,6.091-14.589-0.889-21.01c-7.939-7.305,2.103,11.068,0.615,21.258
		c-1.947,1.763-3.8,3.396-5.419,4.802c1.383-2.98,6.109-14.592-0.882-21.025c-2.37-2.18-3.131-2.062-3.081-0.567
		c-0.155-0.251-0.313-0.506-0.477-0.768C39.642,14.334,45.184,2.885,44.974,0h-0.156h-0.481h-1.349
		c-0.33,0.231-0.695,0.508-1.123,0.868c-6.672,5.602-3.697,16.003-2.196,20.035c-1.011-1.613-2.148-3.401-3.366-5.271
		C35.831,10.988,37.809,4.769,39.343,0h-5.041c-1.653,5.732,0.591,12.459,1.605,15.026c-2.07-3.162-4.356-6.528-6.646-9.667
		c0.022,0.004,0.044,0.008,0.066,0.012c0,0-0.032-0.017-0.093-0.049c-0.043-0.058-0.085-0.117-0.128-0.175
		C28.68,3.618,28.511,1.855,28.501,0H26.35c0.732,1.791,1.531,3.282,2.096,4.252C27.33,2.75,26.22,1.319,25.139,0h-0.365
		c1.24,1.529,2.517,3.214,3.798,4.994c-3.037-1.446-14.508-6.22-20.988,0.66c-7.378,7.835,11.002-1.926,21.189-0.379
		c2.395,3.345,4.787,6.971,6.928,10.348c-2.722-1.886-13.33-8.497-20.852-2.72c-8.556,6.572,11.265-0.177,21.05,3.032
		c1.404,2.22,2.696,4.325,3.803,6.161c-2.699-1.873-13.331-8.517-20.866-2.729c-8.555,6.572,11.263-0.176,21.048,3.032
		c0.384,0.638,0.743,1.239,1.077,1.801c0.926,4.56,4.399,13.963,3.481,20.255c-1.52,1.316-2.807,2.409-3.77,3.22
		c-9.169-1.51-16.039,9.192-17.329,11.362c0.064-2.699-0.101-16.022-9.437-19.12c-10.25-3.401,6.498,9.253,9.303,19.158
		c-0.983,3.159-3.026,7.3-5.46,11.63c0.031-3.364-0.473-15.778-9.443-18.755c-10.215-3.389,6.383,9.166,9.274,19.056
		c-2.024,3.582-4.304,7.278-6.464,10.644c0.563-3.263,2.088-15.67-6.321-20.056c-9.566-4.989,4.909,10.141,6.121,20.367
		c-1.422,2.209-2.786,4.267-3.984,6.045c0.561-3.237,2.105-15.679-6.318-20.072C0.391,67.819,0.196,67.725,0,67.631v5.413
		c2.564,4.393,6.155,10.379,6.734,15.255c-1.79,2.651-3.182,4.636-3.803,5.517c-0.479,0.009-1.294,0.484-2.566,1.552
		C0.232,95.48,0.126,95.605,0,95.721v11.332C1.51,101.338,3.779,95.916,3.457,94.298z"></path>
	<path d="M30.181,132.186c-7.017-5.914-17.445-0.373-20.656,1.588c2.761-2.581,5.686-5.409,8.387-8.202
		c-0.001,0.023,0,0.045-0.001,0.067c0,0,0.012-0.034,0.033-0.1c0.05-0.052,0.1-0.104,0.15-0.156
		c9.287-4.419,29.996,0.08,20.697-5.493c-7.688-4.608-16.845,2.093-19.928,4.688c3.266-3.438,6.119-6.772,7.822-9.469
		c9.182-4.657,29.833-0.942,20.381-6.163c-8.655-4.781-18.611,4.254-20.478,6.069c0.764-2.589,4.069-15.496-4.141-20.915
		c-9.013-5.949,3.869,10.624,4.002,20.918c-1.771,2.794-4.82,6.262-8.296,9.81c0.904-3.24,3.646-15.358-4.242-20.565
		c-8.982-5.928,3.78,10.51,4,20.812c-2.886,2.932-6.049,5.909-9.01,8.597c1.393-3.005,6.091-14.589-0.889-21.01
		c-7.939-7.305,2.103,11.068,0.615,21.258c-1.947,1.763-3.8,3.396-5.419,4.802c1.383-2.98,6.109-14.592-0.882-21.025
		c-1.095-1.008-1.839-1.512-2.327-1.631v2.288v1.255v1.347c1.299,4.958,3.727,12.617,2.942,17.998
		c-1.119,0.969-2.108,1.813-2.942,2.52v0.868v0.014v3.24c3.314-1.228,4.414-2.168,0.039-3.246c-0.009-0.002-0.017-0.004-0.026-0.005
		c0.945-0.822,2.138-1.868,3.523-3.104c9.981-2.603,29.151,4.884,20.958-2.02c-6.661-5.615-16.4-0.904-20.115,1.265
		c1.416-1.272,2.983-2.698,4.617-4.218C18.91,131.49,38.435,139.144,30.181,132.186z"></path>
	<path d="M151.089,20.516c0.746-2.528,3.908-14.89-3.586-20.516h-3.575c1.084,3.842,6.932,13.596,7.022,20.519
		c-1.771,2.794-4.82,6.262-8.296,9.81c0.904-3.24,3.646-15.358-4.242-20.565c-8.982-5.928,3.78,10.51,4,20.812
		c-2.886,2.932-6.049,5.909-9.01,8.597c1.393-3.005,6.091-14.589-0.889-21.01c-7.939-7.305,2.103,11.068,0.615,21.258
		c-1.947,1.763-3.8,3.396-5.419,4.802c1.383-2.98,6.109-14.592-0.882-21.025c-2.37-2.18-3.131-2.062-3.081-0.567
		c-0.155-0.251-0.313-0.506-0.477-0.768c-0.627-7.529,4.915-18.977,4.705-21.863h-0.156h-0.481h-1.349
		c-0.33,0.231-0.695,0.508-1.123,0.868c-6.672,5.602-3.697,16.003-2.196,20.035c-1.011-1.613-2.148-3.401-3.366-5.271
		c-0.472-4.644,1.506-10.863,3.04-15.632h-5.041c-1.653,5.732,0.591,12.459,1.605,15.026c-2.07-3.162-4.356-6.528-6.646-9.667
		c0.022,0.004,0.044,0.008,0.066,0.012c0,0-0.032-0.017-0.093-0.049c-0.043-0.058-0.085-0.117-0.128-0.175
		c-0.427-1.53-0.596-3.292-0.606-5.148h-2.151c0.732,1.791,1.531,3.282,2.096,4.252C110.33,2.75,109.22,1.319,108.139,0h-0.365
		c1.24,1.529,2.517,3.214,3.798,4.994c-3.037-1.446-14.508-6.22-20.988,0.66c-7.378,7.835,11.002-1.926,21.189-0.379
		c2.395,3.345,4.787,6.971,6.928,10.348c-2.722-1.886-13.33-8.497-20.852-2.72c-8.556,6.572,11.265-0.177,21.05,3.032
		c1.404,2.22,2.696,4.325,3.803,6.161c-2.699-1.873-13.331-8.517-20.866-2.729c-8.555,6.572,11.263-0.176,21.048,3.032
		c0.384,0.638,0.743,1.239,1.077,1.801c0.926,4.56,4.399,13.963,3.481,20.255c-1.52,1.316-2.807,2.409-3.77,3.22
		c-9.169-1.51-16.039,9.192-17.329,11.362c0.064-2.699-0.101-16.022-9.437-19.12c-10.25-3.401,6.498,9.253,9.303,19.158
		c-0.983,3.159-3.026,7.3-5.46,11.63c0.031-3.364-0.473-15.778-9.443-18.755c-10.215-3.389,6.383,9.166,9.274,19.056
		c-2.024,3.582-4.304,7.278-6.464,10.644c0.563-3.263,2.088-15.67-6.321-20.056c-9.566-4.989,4.909,10.141,6.121,20.367
		c-1.422,2.209-2.786,4.267-3.984,6.045c0.561-3.237,2.105-15.679-6.318-20.072c-9.565-4.989,4.907,10.139,6.121,20.365
		c-1.789,2.648-3.179,4.632-3.801,5.514c-0.478,0.009-1.296,0.486-2.568,1.555c-6.672,5.602-3.697,16.003-2.196,20.035
		c-1.011-1.613-2.148-3.401-3.366-5.271c-1.04-10.243,9.842-28.17,1.575-21.228c-7.027,5.901-3.353,17.124-1.971,20.623
		c-2.07-3.162-4.356-6.528-6.646-9.667c0.022,0.004,0.044,0.008,0.066,0.012c0,0-0.032-0.017-0.093-0.049
		c-0.043-0.058-0.085-0.117-0.128-0.175c-2.764-9.907,5.213-29.54-1.87-21.332c-5.856,6.786-0.821,16.955,1.209,20.436
		c-2.828-3.807-5.625-7.188-7.991-9.327c-3.017-9.844,4.178-29.554-2.584-21.135c-6.192,7.709,1.006,19.065,2.475,21.214
		c-2.421-1.196-14.572-6.661-21.316,0.501c-7.404,7.862,11.129-1.993,21.294-0.363c2.45,2.223,5.345,5.82,8.246,9.852
		c-3.037-1.446-14.508-6.22-20.988,0.66c-7.378,7.835,11.002-1.926,21.189-0.379c2.395,3.345,4.787,6.971,6.928,10.348
		c-2.722-1.886-13.33-8.497-20.852-2.72c-8.556,6.572,11.265-0.177,21.05,3.032c1.404,2.22,2.696,4.325,3.803,6.161
		c-2.699-1.873-13.331-8.517-20.866-2.729c-8.555,6.572,11.263-0.176,21.048,3.032c0.384,0.638,0.743,1.239,1.077,1.801
		c0.926,4.56,4.399,13.963,3.481,20.255c-1.52,1.316-2.807,2.409-3.77,3.22c-9.169-1.51-16.039,9.192-17.329,11.362
		c0.064-2.699-0.101-16.022-9.437-19.12c-10.25-3.401,6.498,9.253,9.303,19.158c-0.983,3.159-3.026,7.3-5.46,11.63
		c0.031-3.364-0.473-15.778-9.443-18.755c-10.215-3.389,6.383,9.166,9.274,19.056c-2.024,3.582-4.304,7.278-6.464,10.644
		c0.563-3.263,2.088-15.67-6.321-20.056c-9.566-4.989,4.909,10.141,6.121,20.367c-1.422,2.209-2.786,4.267-3.984,6.045
		c0.561-3.237,2.105-15.679-6.318-20.072c-9.565-4.989,4.907,10.139,6.121,20.365c-1.799,2.663-3.196,4.657-3.813,5.531
		c-0.318,0.007-0.782,0.214-1.433,0.669h1.349h0.481h0.156c-0.005-0.069-0.019-0.124-0.031-0.183
		c0.57-0.831,2.022-2.965,3.938-5.895c8.961-5.108,29.418-2.863,19.712-7.4c-7.892-3.689-16.071,3.391-19.094,6.452
		c1.037-1.596,2.179-3.381,3.361-5.274c8.851-5.261,29.694-2.946,19.914-7.518c-8.313-3.886-16.942,4.175-19.532,6.904
		c1.995-3.21,4.084-6.702,5.966-10.101c0.005,0.022,0.011,0.044,0.017,0.066c0,0,0.002-0.036,0.005-0.105
		c0.035-0.063,0.07-0.126,0.105-0.189c7.819-6.682,28.986-7.722,18.558-10.686c-8.622-2.451-15.722,6.401-18.023,9.709
		c2.26-4.17,4.147-8.13,5.091-11.178c7.656-6.884,28.562-8.666,18.078-11.25c-0.009-0.002-0.017-0.003-0.026-0.005
		c0.945-0.822,2.139-1.869,3.523-3.104c9.981-2.603,29.151,4.884,20.958-2.02c-6.661-5.615-16.4-0.904-20.115,1.265
		c1.416-1.272,2.983-2.698,4.617-4.218c9.914-2.778,29.439,4.876,21.184-2.082c-7.017-5.914-17.445-0.373-20.656,1.588
		c2.761-2.581,5.686-5.409,8.387-8.202c-0.001,0.023,0,0.045-0.001,0.067c0,0,0.012-0.034,0.033-0.1
		c0.05-0.052,0.1-0.104,0.15-0.156c9.287-4.419,29.996,0.08,20.697-5.493c-7.688-4.608-16.845,2.093-19.928,4.688
		c3.266-3.438,6.119-6.772,7.822-9.469c9.182-4.657,29.833-0.942,20.381-6.163c-8.655-4.781-18.611,4.254-20.478,6.069
		c0.764-2.589,4.069-15.496-4.141-20.915c-9.013-5.949,3.869,10.624,4.002,20.918c-1.771,2.794-4.82,6.262-8.296,9.81
		c0.904-3.24,3.646-15.358-4.242-20.565c-8.982-5.928,3.78,10.51,4,20.812c-2.886,2.932-6.049,5.909-9.01,8.597
		c1.393-3.005,6.091-14.589-0.889-21.01c-7.939-7.305,2.103,11.068,0.615,21.258c-1.947,1.763-3.8,3.396-5.419,4.802
		c1.383-2.98,6.109-14.592-0.882-21.025c-2.37-2.18-3.131-2.062-3.081-0.567c-0.155-0.251-0.313-0.506-0.477-0.768
		c-0.642-7.708,5.189-19.534,4.688-22.065c0.591-0.862,2.039-2.992,3.925-5.876c8.961-5.108,29.418-2.863,19.712-7.4
		c-7.892-3.689-16.071,3.391-19.094,6.452c1.037-1.596,2.179-3.381,3.361-5.274c8.851-5.261,29.694-2.946,19.914-7.518
		c-8.313-3.886-16.942,4.175-19.532,6.904c1.995-3.21,4.084-6.702,5.966-10.101c0.005,0.022,0.011,0.044,0.017,0.066
		c0,0,0.002-0.036,0.005-0.105c0.035-0.063,0.07-0.126,0.105-0.189c7.819-6.682,28.986-7.722,18.558-10.686
		c-8.622-2.451-15.722,6.401-18.023,9.709c2.26-4.17,4.147-8.13,5.091-11.178c7.656-6.884,28.562-8.666,18.078-11.25
		c-0.009-0.002-0.017-0.003-0.026-0.005c0.945-0.822,2.139-1.869,3.523-3.104c9.981-2.603,29.151,4.884,20.958-2.02
		c-6.661-5.615-16.4-0.904-20.115,1.265c1.416-1.272,2.983-2.698,4.617-4.218c9.914-2.778,29.439,4.876,21.184-2.082
		c-7.017-5.914-17.445-0.373-20.656,1.588c2.761-2.581,5.686-5.409,8.387-8.202c-0.001,0.023,0,0.045-0.001,0.067
		c0,0,0.012-0.034,0.033-0.1c0.05-0.052,0.1-0.104,0.15-0.156c9.287-4.419,29.996,0.08,20.697-5.493
		c-7.688-4.608-16.845,2.093-19.928,4.688c3.266-3.438,6.119-6.772,7.822-9.469c3.926-1.991,9.945-2.451,14.815-2.734v-4.802
		C159.069,13.165,152.561,19.085,151.089,20.516z"></path>
	<path d="M5.567,14.447C3.74,13.438,1.855,13.05,0,13.074v4.802C6.52,17.497,10.977,17.436,5.567,14.447z"></path>
</g></g></pattern></defs><rect width="100%" height="100%" id="RctSolidBackground1" fill="url(#pattern-501-layer-1)"></rect></svg>